<?xml version="1.0" standalone="no"?>
<!DOCTYPE svg PUBLIC "-//W3C//DTD SVG 1.1//EN" "http://www.w3.org/Graphics/SVG/1.1/DTD/svg11.dtd" >
<svg xmlns="http://www.w3.org/2000/svg" xmlns:xlink="http://www.w3.org/1999/xlink" version="1.1">
<metadata>
Created by FontForge 20190801 at Mon Apr  2 14:12:26 2018
 By Jimmy Wärting
Pangram Pangram Foundry
</metadata>
<defs>
<font id="NeueMontreal-Medium" horiz-adv-x="0" >
  <font-face 
    font-family="Neue Montreal Medium"
    font-weight="500"
    font-stretch="normal"
    units-per-em="1000"
    panose-1="0 0 6 0 0 0 0 0 0 0"
    ascent="773"
    descent="-227"
    x-height="511"
    cap-height="715"
    bbox="-562 -263 1183 966"
    underline-thickness="50"
    underline-position="-100"
    stemh="84"
    stemv="88"
    unicode-range="U+0020-25CA"
  />
<missing-glyph horiz-adv-x="500" 
d="M410 773v-1000h-317v1000h317zM333 706h-165v-33h65v-37h-66v-33h166v33h-66v37h66v33zM267 577h-100v-104h166v34h-66v70zM233 543v-36h-33v36h33zM333 446h-166v-33h66v-37h-66v-33h100v70h66v33zM333 386h-33v-66h-133v-34h166v100zM333 264h-100v-56h34v23h33v-47
h-100v80h-33v-113h166v113zM333 91h-166v-113h166v113zM300 58v-47h-100v47h100zM333 -45h-166v-33h70l-70 -47v-33h166v33h-102l70 47h32v33z" />
    <glyph glyph-name=".notdef" horiz-adv-x="500" 
d="M410 773v-1000h-317v1000h317zM333 706h-165v-33h65v-37h-66v-33h166v33h-66v37h66v33zM267 577h-100v-104h166v34h-66v70zM233 543v-36h-33v36h33zM333 446h-166v-33h66v-37h-66v-33h100v70h66v33zM333 386h-33v-66h-133v-34h166v100zM333 264h-100v-56h34v23h33v-47
h-100v80h-33v-113h166v113zM333 91h-166v-113h166v113zM300 58v-47h-100v47h100zM333 -45h-166v-33h70l-70 -47v-33h166v33h-102l70 47h32v33z" />
    <glyph glyph-name="A" unicode="A" horiz-adv-x="663" 
d="M477 169h-292l-58 -169h-121l263 715h125l262 -715h-121zM218 268h227l-112 338h-2z" />
    <glyph glyph-name="Aacute" unicode="&#xc1;" horiz-adv-x="663" 
d="M332 927h122l-83 -131h-82zM477 169h-292l-58 -169h-121l263 715h125l262 -715h-121zM218 268h227l-112 338h-2z" />
    <glyph glyph-name="Abreve" unicode="&#x102;" horiz-adv-x="663" 
d="M332 792c-78 0 -135 46 -138 135h70c3 -42 25 -63 68 -63s64 21 67 63h70c-4 -86 -58 -135 -137 -135zM477 169h-292l-58 -169h-121l263 715h125l262 -715h-121zM218 268h227l-112 338h-2z" />
    <glyph glyph-name="Acircumflex" unicode="&#xc2;" horiz-adv-x="663" 
d="M180 797l97 131h111l97 -131h-99l-53 79h-2l-52 -79h-99zM477 169h-292l-58 -169h-121l263 715h125l262 -715h-121zM218 268h227l-112 338h-2z" />
    <glyph glyph-name="Adieresis" unicode="&#xc4;" horiz-adv-x="663" 
d="M188 870c0 32 21 59 59 59c37 0 58 -27 58 -59c0 -30 -21 -57 -58 -57c-38 0 -59 27 -59 57zM359 870c0 32 21 59 59 59c37 0 58 -27 58 -59c0 -30 -21 -57 -58 -57c-38 0 -59 27 -59 57zM477 169h-292l-58 -169h-121l263 715h125l262 -715h-121zM218 268h227l-112 338
h-2z" />
    <glyph glyph-name="Agrave" unicode="&#xc0;" horiz-adv-x="663" 
d="M331 927l43 -131h-82l-83 131h122zM477 169h-292l-58 -169h-121l263 715h125l262 -715h-121zM218 268h227l-112 338h-2z" />
    <glyph glyph-name="Amacron" unicode="&#x100;" horiz-adv-x="663" 
d="M199 904h267v-80h-267v80zM477 169h-292l-58 -169h-121l263 715h125l262 -715h-121zM218 268h227l-112 338h-2z" />
    <glyph glyph-name="Aogonek" unicode="&#x104;" horiz-adv-x="663" 
d="M611 -106c18 0 32 4 46 9v-70c-20 -6 -46 -10 -70 -10c-65 0 -98 30 -98 77s39 85 74 100h-28l-58 169h-292l-58 -169h-121l263 715h125l262 -715h-20c-38 -30 -60 -56 -60 -78c0 -18 15 -28 35 -28zM218 268h227l-112 338h-2z" />
    <glyph glyph-name="Aring" unicode="&#xc5;" horiz-adv-x="663" 
d="M332 783c-50 0 -92 35 -92 91c0 54 42 92 92 92s92 -38 92 -92c0 -56 -42 -91 -92 -91zM332 827c24 0 45 18 45 47s-21 47 -45 47s-45 -18 -45 -47s21 -47 45 -47zM477 169h-292l-58 -169h-121l263 715h125l262 -715h-121zM218 268h227l-112 338h-2z" />
    <glyph glyph-name="Atilde" unicode="&#xc3;" horiz-adv-x="663" 
d="M184 818c0 76 35 107 78 107c48 0 94 -37 124 -37c23 0 26 20 26 35h68c0 -78 -35 -107 -79 -107c-48 0 -93 37 -124 37c-23 0 -26 -21 -26 -35h-67zM477 169h-292l-58 -169h-121l263 715h125l262 -715h-121zM218 268h227l-112 338h-2z" />
    <glyph glyph-name="AE" unicode="&#xc6;" horiz-adv-x="994" 
d="M550 101h408v-101h-527v169h-243l-58 -170h-121l266 716h673v-101h-398v-194h349v-102h-349v-217zM221 267h210v345h-94z" />
    <glyph glyph-name="B" unicode="B" horiz-adv-x="653" 
d="M600 535c0 -88 -52 -129 -111 -149v-2c75 -13 139 -68 139 -175c0 -138 -95 -209 -243 -209h-324v715h307c147 0 232 -65 232 -180zM180 419h184c85 0 117 34 117 97s-39 98 -110 98h-191v-195zM180 330v-229h196c102 0 133 48 133 115c0 73 -45 114 -120 114h-209z" />
    <glyph glyph-name="C" unicode="C" horiz-adv-x="705" 
d="M559 469c-13 72 -60 159 -192 159c-154 0 -215 -129 -215 -270c0 -142 61 -271 215 -271c133 0 184 87 192 174h119c-16 -161 -126 -276 -308 -276c-206 0 -336 157 -336 373c0 215 130 372 336 372c181 0 291 -115 308 -261h-119z" />
    <glyph glyph-name="Cacute" unicode="&#x106;" horiz-adv-x="705" 
d="M371 927h122l-83 -131h-82zM559 469c-13 72 -60 159 -192 159c-154 0 -215 -129 -215 -270c0 -142 61 -271 215 -271c133 0 184 87 192 174h119c-16 -161 -126 -276 -308 -276c-206 0 -336 157 -336 373c0 215 130 372 336 372c181 0 291 -115 308 -261h-119z" />
    <glyph glyph-name="Ccaron" unicode="&#x10c;" horiz-adv-x="705" 
d="M219 927h99l52 -79h2l53 79h99l-97 -131h-111zM559 469c-13 72 -60 159 -192 159c-154 0 -215 -129 -215 -270c0 -142 61 -271 215 -271c133 0 184 87 192 174h119c-16 -161 -126 -276 -308 -276c-206 0 -336 157 -336 373c0 215 130 372 336 372
c181 0 291 -115 308 -261h-119z" />
    <glyph glyph-name="Ccedilla" unicode="&#xc7;" horiz-adv-x="705" 
d="M367 87c133 0 184 87 192 174h119c-15 -154 -116 -266 -284 -275l-35 -43v-2c44 6 101 -10 101 -62c0 -48 -54 -76 -112 -76c-43 0 -84 12 -109 29l24 29c22 -9 44 -15 73 -15c28 0 52 13 52 34c0 19 -16 27 -47 27c-11 0 -28 -3 -38 -7l-14 21l52 65
c-189 14 -307 166 -307 372c0 215 130 372 336 372c181 0 291 -115 308 -261h-119c-13 72 -60 159 -192 159c-154 0 -215 -129 -215 -270c0 -142 61 -271 215 -271z" />
    <glyph glyph-name="Cdotaccent" unicode="&#x10a;" horiz-adv-x="705" 
d="M312 870c0 32 21 59 59 59c37 0 58 -27 58 -59c0 -30 -21 -57 -58 -57c-38 0 -59 27 -59 57zM559 469c-13 72 -60 159 -192 159c-154 0 -215 -129 -215 -270c0 -142 61 -271 215 -271c133 0 184 87 192 174h119c-16 -161 -126 -276 -308 -276c-206 0 -336 157 -336 373
c0 215 130 372 336 372c181 0 291 -115 308 -261h-119z" />
    <glyph glyph-name="D" unicode="D" horiz-adv-x="691" 
d="M61 0v715h278c197 0 318 -128 318 -358s-117 -357 -315 -357h-281zM180 614v-513h153c160 0 205 119 205 256s-45 257 -205 257h-153z" />
    <glyph glyph-name="Eth" unicode="&#xd0;" horiz-adv-x="699" 
d="M347 715c197 0 318 -128 318 -358s-117 -357 -315 -357h-281v332h-65v76h65v307h278zM341 101c160 0 205 119 205 256s-45 257 -205 257h-153v-206h201v-76h-201v-231h153z" />
    <glyph glyph-name="Dcaron" unicode="&#x10e;" horiz-adv-x="691" 
d="M130 927h99l52 -79h2l53 79h99l-97 -131h-111zM61 0v715h278c197 0 318 -128 318 -358s-117 -357 -315 -357h-281zM180 614v-513h153c160 0 205 119 205 256s-45 257 -205 257h-153z" />
    <glyph glyph-name="Dcroat" unicode="&#x110;" horiz-adv-x="699" 
d="M347 715c197 0 318 -128 318 -358s-117 -357 -315 -357h-281v332h-65v76h65v307h278zM341 101c160 0 205 119 205 256s-45 257 -205 257h-153v-206h201v-76h-201v-231h153z" />
    <glyph glyph-name="E" unicode="E" horiz-adv-x="624" 
d="M180 420h349v-102h-349v-217h408v-101h-527v715h517v-101h-398v-194z" />
    <glyph glyph-name="Eacute" unicode="&#xc9;" horiz-adv-x="624" 
d="M325 927h122l-83 -131h-82zM180 420h349v-102h-349v-217h408v-101h-527v715h517v-101h-398v-194z" />
    <glyph glyph-name="Ecaron" unicode="&#x11a;" horiz-adv-x="624" 
d="M173 927h99l52 -79h2l53 79h99l-97 -131h-111zM180 420h349v-102h-349v-217h408v-101h-527v715h517v-101h-398v-194z" />
    <glyph glyph-name="Ecircumflex" unicode="&#xca;" horiz-adv-x="624" 
d="M173 797l97 131h111l97 -131h-99l-53 79h-2l-52 -79h-99zM180 420h349v-102h-349v-217h408v-101h-527v715h517v-101h-398v-194z" />
    <glyph glyph-name="Edieresis" unicode="&#xcb;" horiz-adv-x="624" 
d="M181 870c0 32 21 59 59 59c37 0 58 -27 58 -59c0 -30 -21 -57 -58 -57c-38 0 -59 27 -59 57zM352 870c0 32 21 59 59 59c37 0 58 -27 58 -59c0 -30 -21 -57 -58 -57c-38 0 -59 27 -59 57zM180 420h349v-102h-349v-217h408v-101h-527v715h517v-101h-398v-194z" />
    <glyph glyph-name="Edotaccent" unicode="&#x116;" horiz-adv-x="624" 
d="M266 870c0 32 21 59 59 59c37 0 58 -27 58 -59c0 -30 -21 -57 -58 -57c-38 0 -59 27 -59 57zM180 420h349v-102h-349v-217h408v-101h-527v715h517v-101h-398v-194z" />
    <glyph glyph-name="Egrave" unicode="&#xc8;" horiz-adv-x="624" 
d="M324 927l43 -131h-82l-83 131h122zM180 420h349v-102h-349v-217h408v-101h-527v715h517v-101h-398v-194z" />
    <glyph glyph-name="Emacron" unicode="&#x112;" horiz-adv-x="624" 
d="M192 904h267v-80h-267v80zM180 420h349v-102h-349v-217h408v-101h-527v715h517v-101h-398v-194z" />
    <glyph glyph-name="Eogonek" unicode="&#x118;" horiz-adv-x="624" 
d="M555 -106c18 0 32 4 46 9v-70c-20 -6 -46 -10 -70 -10c-65 0 -98 30 -98 77s39 85 74 100h-446v715h517v-101h-398v-194h349v-102h-349v-217h408v-101h-8c-38 -30 -60 -56 -60 -78c0 -18 15 -28 35 -28z" />
    <glyph glyph-name="F" unicode="F" horiz-adv-x="586" 
d="M180 406h309v-102h-309v-304h-119v715h500v-101h-381v-208z" />
    <glyph glyph-name="G" unicode="G" horiz-adv-x="740" 
d="M559 492c-18 85 -84 136 -190 136c-153 0 -216 -136 -216 -270c0 -135 49 -271 212 -271c113 0 203 78 204 192h-202v96h323v-375h-82l-26 98h-2c-48 -72 -115 -113 -223 -113c-207 0 -323 157 -323 373c0 215 130 372 336 372c186 0 286 -101 308 -238h-119z" />
    <glyph glyph-name="Gbreve" unicode="&#x11e;" horiz-adv-x="740" 
d="M367 792c-78 0 -135 46 -138 135h70c3 -42 25 -63 68 -63s64 21 67 63h70c-4 -86 -58 -135 -137 -135zM559 492c-18 85 -84 136 -190 136c-153 0 -216 -136 -216 -270c0 -135 49 -271 212 -271c113 0 203 78 204 192h-202v96h323v-375h-82l-26 98h-2
c-48 -72 -115 -113 -223 -113c-207 0 -323 157 -323 373c0 215 130 372 336 372c186 0 286 -101 308 -238h-119z" />
    <glyph glyph-name="Gcommaaccent" unicode="&#x122;" horiz-adv-x="740" 
d="M559 492c-18 85 -84 136 -190 136c-153 0 -216 -136 -216 -270c0 -135 49 -271 212 -271c113 0 203 78 204 192h-202v96h323v-375h-82l-26 98h-2c-48 -72 -115 -113 -223 -113c-207 0 -323 157 -323 373c0 215 130 372 336 372c186 0 286 -101 308 -238h-119zM379 -164
c-35 -10 -64 9 -64 50c0 34 26 59 57 59c42 0 63 -37 63 -86c0 -51 -28 -110 -111 -122v42c34 6 55 23 55 57z" />
    <glyph glyph-name="Gdotaccent" unicode="&#x120;" horiz-adv-x="740" 
d="M308 870c0 32 21 59 59 59c37 0 58 -27 58 -59c0 -30 -21 -57 -58 -57c-38 0 -59 27 -59 57zM559 492c-18 85 -84 136 -190 136c-153 0 -216 -136 -216 -270c0 -135 49 -271 212 -271c113 0 203 78 204 192h-202v96h323v-375h-82l-26 98h-2c-48 -72 -115 -113 -223 -113
c-207 0 -323 157 -323 373c0 215 130 372 336 372c186 0 286 -101 308 -238h-119z" />
    <glyph glyph-name="H" unicode="H" horiz-adv-x="698" 
d="M61 715h119v-296h338v296h119v-715h-119v317h-338v-317h-119v715z" />
    <glyph glyph-name="Hbar" unicode="&#x126;" horiz-adv-x="702" 
d="M702 609v-77h-65v-532h-119v317h-338v-317h-119v532h-65v77h65v106h119v-106h338v106h119v-106h65zM518 419v113h-338v-113h338z" />
    <glyph glyph-name="I" unicode="I" horiz-adv-x="244" 
d="M63 715h119v-715h-119v715z" />
    <glyph glyph-name="Iacute" unicode="&#xcd;" horiz-adv-x="244" 
d="M122 927h122l-83 -131h-82zM63 715h119v-715h-119v715z" />
    <glyph glyph-name="Icircumflex" unicode="&#xce;" horiz-adv-x="244" 
d="M-30 797l97 131h111l97 -131h-99l-53 79h-2l-52 -79h-99zM63 715h119v-715h-119v715z" />
    <glyph glyph-name="Idieresis" unicode="&#xcf;" horiz-adv-x="244" 
d="M-22 870c0 32 21 59 59 59c37 0 58 -27 58 -59c0 -30 -21 -57 -58 -57c-38 0 -59 27 -59 57zM149 870c0 32 21 59 59 59c37 0 58 -27 58 -59c0 -30 -21 -57 -58 -57c-38 0 -59 27 -59 57zM63 715h119v-715h-119v715z" />
    <glyph glyph-name="Idotaccent" unicode="&#x130;" horiz-adv-x="244" 
d="M63 870c0 32 21 59 59 59c37 0 58 -27 58 -59c0 -30 -21 -57 -58 -57c-38 0 -59 27 -59 57zM63 715h119v-715h-119v715z" />
    <glyph glyph-name="Igrave" unicode="&#xcc;" horiz-adv-x="244" 
d="M121 927l43 -131h-82l-83 131h122zM63 715h119v-715h-119v715z" />
    <glyph glyph-name="Imacron" unicode="&#x12a;" horiz-adv-x="244" 
d="M-11 904h267v-80h-267v80zM63 715h119v-715h-119v715z" />
    <glyph glyph-name="Iogonek" unicode="&#x12e;" horiz-adv-x="244" 
d="M157 -106c18 0 32 4 46 9v-70c-20 -6 -46 -10 -70 -10c-65 0 -98 30 -98 77s39 85 74 100h-46v715h119v-715c-38 -30 -60 -56 -60 -78c0 -18 15 -28 35 -28z" />
    <glyph glyph-name="J" unicode="J" horiz-adv-x="512" 
d="M459 224c0 -123 -48 -239 -220 -239s-220 116 -220 239v33h113v-33c0 -80 14 -137 104 -137c89 0 105 57 105 137v491h118v-491z" />
    <glyph glyph-name="K" unicode="K" horiz-adv-x="661" 
d="M61 715h119v-353l324 353h142l-278 -303l295 -412h-139l-234 329l-110 -118v-211h-119v715z" />
    <glyph glyph-name="Kcommaaccent" unicode="&#x136;" horiz-adv-x="661" 
d="M61 715h119v-353l324 353h142l-278 -303l295 -412h-139l-234 329l-110 -118v-211h-119v715zM360 -164c-35 -10 -64 9 -64 50c0 34 26 59 57 59c42 0 63 -37 63 -86c0 -51 -28 -110 -111 -122v42c34 6 55 23 55 57z" />
    <glyph glyph-name="L" unicode="L" horiz-adv-x="558" 
d="M61 715h119v-614h357v-101h-476v715z" />
    <glyph glyph-name="Lacute" unicode="&#x139;" horiz-adv-x="558" 
d="M122 927h122l-83 -131h-82zM61 715h119v-614h357v-101h-476v715z" />
    <glyph glyph-name="Lcaron" unicode="&#x13d;" horiz-adv-x="558" 
d="M372 605c-44 -10 -74 17 -74 55c0 34 23 60 61 60c44 0 65 -37 65 -86c0 -52 -33 -114 -118 -123v39c32 5 66 28 66 55zM61 715h119v-614h357v-101h-476v715z" />
    <glyph glyph-name="Lcommaaccent" unicode="&#x13b;" horiz-adv-x="558" 
d="M61 715h119v-614h357v-101h-476v715zM303 -164c-35 -10 -64 9 -64 50c0 34 26 59 57 59c42 0 63 -37 63 -86c0 -51 -28 -110 -111 -122v42c34 6 55 23 55 57z" />
    <glyph glyph-name="Lslash" unicode="&#x141;" horiz-adv-x="556" 
d="M179 101h357v-101h-476v234l-67 -49v89l67 49v392h119v-304l173 127v-90l-173 -127v-220z" />
    <glyph glyph-name="M" unicode="M" horiz-adv-x="831" 
d="M61 0v715h154l200 -550h2l199 550h154v-715h-116v542h-2l-189 -542h-95l-189 542h-2v-542h-116z" />
    <glyph glyph-name="N" unicode="N" horiz-adv-x="698" 
d="M61 0v715h133l322 -537h2v537h119v-715h-132l-323 535h-2v-535h-119z" />
    <glyph glyph-name="Nacute" unicode="&#x143;" horiz-adv-x="698" 
d="M350 927h122l-83 -131h-82zM61 0v715h133l322 -537h2v537h119v-715h-132l-323 535h-2v-535h-119z" />
    <glyph glyph-name="Ncaron" unicode="&#x147;" horiz-adv-x="698" 
d="M198 927h99l52 -79h2l53 79h99l-97 -131h-111zM61 0v715h133l322 -537h2v537h119v-715h-132l-323 535h-2v-535h-119z" />
    <glyph glyph-name="Ncommaaccent" unicode="&#x145;" horiz-adv-x="698" 
d="M61 0v715h133l322 -537h2v537h119v-715h-132l-323 535h-2v-535h-119zM354 -164c-35 -10 -64 9 -64 50c0 34 26 59 57 59c42 0 63 -37 63 -86c0 -51 -28 -110 -111 -122v42c34 6 55 23 55 57z" />
    <glyph glyph-name="Eng" unicode="&#x14a;" horiz-adv-x="698" 
d="M61 0v715h133l322 -537h2v537h119v-700c0 -131 -69 -193 -184 -193c-27 0 -50 3 -69 8v85c78 -6 123 11 129 72l-331 548h-2v-535h-119z" />
    <glyph glyph-name="Ntilde" unicode="&#xd1;" horiz-adv-x="698" 
d="M202 818c0 76 35 107 78 107c48 0 94 -37 124 -37c23 0 26 20 26 35h68c0 -78 -35 -107 -79 -107c-48 0 -93 37 -124 37c-23 0 -26 -21 -26 -35h-67zM61 0v715h133l322 -537h2v537h119v-715h-132l-323 535h-2v-535h-119z" />
    <glyph glyph-name="O" unicode="O" horiz-adv-x="770" 
d="M385 -15c-216 0 -351 158 -351 373s135 372 351 372c215 0 351 -157 351 -372s-136 -373 -351 -373zM385 87c164 0 232 126 232 271c0 144 -68 270 -232 270s-233 -126 -233 -270c0 -145 69 -271 233 -271z" />
    <glyph glyph-name="Oacute" unicode="&#xd3;" horiz-adv-x="770" 
d="M385 927h122l-83 -131h-82zM385 -15c-216 0 -351 158 -351 373s135 372 351 372c215 0 351 -157 351 -372s-136 -373 -351 -373zM385 87c164 0 232 126 232 271c0 144 -68 270 -232 270s-233 -126 -233 -270c0 -145 69 -271 233 -271z" />
    <glyph glyph-name="Ocircumflex" unicode="&#xd4;" horiz-adv-x="770" 
d="M233 797l97 131h111l97 -131h-99l-53 79h-2l-52 -79h-99zM385 -15c-216 0 -351 158 -351 373s135 372 351 372c215 0 351 -157 351 -372s-136 -373 -351 -373zM385 87c164 0 232 126 232 271c0 144 -68 270 -232 270s-233 -126 -233 -270c0 -145 69 -271 233 -271z" />
    <glyph glyph-name="Odieresis" unicode="&#xd6;" horiz-adv-x="770" 
d="M241 870c0 32 21 59 59 59c37 0 58 -27 58 -59c0 -30 -21 -57 -58 -57c-38 0 -59 27 -59 57zM412 870c0 32 21 59 59 59c37 0 58 -27 58 -59c0 -30 -21 -57 -58 -57c-38 0 -59 27 -59 57zM385 -15c-216 0 -351 158 -351 373s135 372 351 372c215 0 351 -157 351 -372
s-136 -373 -351 -373zM385 87c164 0 232 126 232 271c0 144 -68 270 -232 270s-233 -126 -233 -270c0 -145 69 -271 233 -271z" />
    <glyph glyph-name="Ograve" unicode="&#xd2;" horiz-adv-x="770" 
d="M384 927l43 -131h-82l-83 131h122zM385 -15c-216 0 -351 158 -351 373s135 372 351 372c215 0 351 -157 351 -372s-136 -373 -351 -373zM385 87c164 0 232 126 232 271c0 144 -68 270 -232 270s-233 -126 -233 -270c0 -145 69 -271 233 -271z" />
    <glyph glyph-name="Ohungarumlaut" unicode="&#x150;" horiz-adv-x="770" 
d="M297 927h122l-83 -131h-82zM464 927h122l-83 -131h-82zM385 -15c-216 0 -351 158 -351 373s135 372 351 372c215 0 351 -157 351 -372s-136 -373 -351 -373zM385 87c164 0 232 126 232 271c0 144 -68 270 -232 270s-233 -126 -233 -270c0 -145 69 -271 233 -271z" />
    <glyph glyph-name="Omacron" unicode="&#x14c;" horiz-adv-x="770" 
d="M252 904h267v-80h-267v80zM385 -15c-216 0 -351 158 -351 373s135 372 351 372c215 0 351 -157 351 -372s-136 -373 -351 -373zM385 87c164 0 232 126 232 271c0 144 -68 270 -232 270s-233 -126 -233 -270c0 -145 69 -271 233 -271z" />
    <glyph glyph-name="Oslash" unicode="&#xd8;" horiz-adv-x="772" 
d="M739 676l-76 -76c48 -64 74 -147 74 -242c0 -215 -136 -373 -351 -373c-101 0 -184 34 -244 93l-73 -74l-37 37l76 76c-47 64 -73 147 -73 241c0 215 135 372 351 372c100 0 182 -34 242 -91l73 73zM153 358c0 -59 11 -114 36 -160l362 364c-37 41 -91 66 -165 66
c-164 0 -233 -126 -233 -270zM618 358c0 59 -11 115 -36 160l-363 -363c38 -42 93 -68 167 -68c164 0 232 126 232 271z" />
    <glyph glyph-name="Otilde" unicode="&#xd5;" horiz-adv-x="770" 
d="M237 818c0 76 35 107 78 107c48 0 94 -37 124 -37c23 0 26 20 26 35h68c0 -78 -35 -107 -79 -107c-48 0 -93 37 -124 37c-23 0 -26 -21 -26 -35h-67zM385 -15c-216 0 -351 158 -351 373s135 372 351 372c215 0 351 -157 351 -372s-136 -373 -351 -373zM385 87
c164 0 232 126 232 271c0 144 -68 270 -232 270s-233 -126 -233 -270c0 -145 69 -271 233 -271z" />
    <glyph glyph-name="OE" unicode="&#x152;" horiz-adv-x="1080" 
d="M636 101h408v-101h-527v60c-45 -48 -107 -75 -183 -75c-178 0 -300 158 -300 373s122 372 300 372c76 0 138 -26 183 -75v60h517v-101h-398v-194h349v-102h-349v-217zM358 87c66 0 124 33 159 99v343c-35 66 -93 99 -159 99c-151 0 -206 -126 -206 -270
c0 -145 55 -271 206 -271z" />
    <glyph glyph-name="P" unicode="P" horiz-adv-x="619" 
d="M61 0v715h304c137 0 236 -64 236 -214s-99 -215 -236 -215h-185v-286h-119zM180 614v-226h180c80 0 122 34 122 113c0 78 -42 113 -122 113h-180z" />
    <glyph glyph-name="Thorn" unicode="&#xde;" horiz-adv-x="616" 
d="M61 0v715h119v-114h185c137 0 236 -64 236 -214s-99 -214 -236 -214h-185v-173h-119zM180 500v-226h180c80 0 122 35 122 113s-42 113 -122 113h-180z" />
    <glyph glyph-name="Q" unicode="Q" horiz-adv-x="770" 
d="M736 358c0 -99 -29 -186 -81 -251l80 -80l-70 -70l-83 83c-54 -35 -121 -55 -197 -55c-216 0 -351 158 -351 373s135 372 351 372c215 0 351 -157 351 -372zM385 87c48 0 88 11 121 30l-97 97l70 70l96 -97c29 47 42 107 42 171c0 144 -68 270 -232 270
s-233 -126 -233 -270c0 -145 69 -271 233 -271z" />
    <glyph glyph-name="R" unicode="R" horiz-adv-x="645" 
d="M61 0v715h305c147 0 242 -75 242 -205c0 -100 -51 -158 -133 -178v-2c165 -31 105 -311 143 -323v-7h-125c-33 30 34 276 -138 276h-175v-276h-119zM180 614v-236h161c73 0 149 14 149 118c0 103 -76 118 -149 118h-161z" />
    <glyph glyph-name="Racute" unicode="&#x154;" horiz-adv-x="645" 
d="M310 927h122l-83 -131h-82zM61 0v715h305c147 0 242 -75 242 -205c0 -100 -51 -158 -133 -178v-2c165 -31 105 -311 143 -323v-7h-125c-33 30 34 276 -138 276h-175v-276h-119zM180 614v-236h161c73 0 149 14 149 118c0 103 -76 118 -149 118h-161z" />
    <glyph glyph-name="Rcaron" unicode="&#x158;" horiz-adv-x="645" 
d="M158 927h99l52 -79h2l53 79h99l-97 -131h-111zM61 0v715h305c147 0 242 -75 242 -205c0 -100 -51 -158 -133 -178v-2c165 -31 105 -311 143 -323v-7h-125c-33 30 34 276 -138 276h-175v-276h-119zM180 614v-236h161c73 0 149 14 149 118c0 103 -76 118 -149 118h-161z
" />
    <glyph glyph-name="Rcommaaccent" unicode="&#x156;" horiz-adv-x="645" 
d="M61 0v715h305c147 0 242 -75 242 -205c0 -100 -51 -158 -133 -178v-2c165 -31 105 -311 143 -323v-7h-125c-33 30 34 276 -138 276h-175v-276h-119zM180 614v-236h161c73 0 149 14 149 118c0 103 -76 118 -149 118h-161zM337 -164c-35 -10 -64 9 -64 50c0 34 26 59 57 59
c42 0 63 -37 63 -86c0 -51 -28 -110 -111 -122v42c34 6 55 23 55 57z" />
    <glyph glyph-name="S" unicode="S" horiz-adv-x="633" 
d="M332 426c153 -39 269 -72 269 -232c0 -114 -86 -209 -266 -209c-175 0 -308 91 -315 253h119c6 -91 68 -151 196 -151c106 0 147 47 147 102c0 85 -61 101 -202 136c-112 28 -233 71 -233 207c0 127 98 198 254 198c157 0 271 -82 281 -229h-119c-11 83 -63 127 -162 127
c-85 0 -136 -32 -136 -85c0 -78 67 -92 167 -117z" />
    <glyph glyph-name="Sacute" unicode="&#x15a;" horiz-adv-x="633" 
d="M307 927h122l-83 -131h-82zM332 426c153 -39 269 -72 269 -232c0 -114 -86 -209 -266 -209c-175 0 -308 91 -315 253h119c6 -91 68 -151 196 -151c106 0 147 47 147 102c0 85 -61 101 -202 136c-112 28 -233 71 -233 207c0 127 98 198 254 198c157 0 271 -82 281 -229
h-119c-11 83 -63 127 -162 127c-85 0 -136 -32 -136 -85c0 -78 67 -92 167 -117z" />
    <glyph glyph-name="Scaron" unicode="&#x160;" horiz-adv-x="633" 
d="M155 927h99l52 -79h2l53 79h99l-97 -131h-111zM332 426c153 -39 269 -72 269 -232c0 -114 -86 -209 -266 -209c-175 0 -308 91 -315 253h119c6 -91 68 -151 196 -151c106 0 147 47 147 102c0 85 -61 101 -202 136c-112 28 -233 71 -233 207c0 127 98 198 254 198
c157 0 271 -82 281 -229h-119c-11 83 -63 127 -162 127c-85 0 -136 -32 -136 -85c0 -78 67 -92 167 -117z" />
    <glyph glyph-name="Scedilla" unicode="&#x15e;" horiz-adv-x="633" 
d="M367 -14l-35 -43v-2c44 6 101 -10 101 -62c0 -48 -54 -76 -112 -76c-43 0 -84 12 -109 29l24 29c22 -9 44 -15 73 -15c28 0 52 13 52 34c0 19 -16 27 -47 27c-11 0 -28 -3 -38 -7l-14 21l52 64c-165 8 -287 98 -294 253h119c6 -91 68 -151 196 -151c106 0 147 47 147 102
c0 85 -61 101 -202 136c-112 28 -233 71 -233 207c0 127 98 198 254 198c157 0 271 -82 281 -229h-119c-11 83 -63 127 -162 127c-85 0 -136 -32 -136 -85c0 -78 67 -92 167 -117c153 -39 269 -72 269 -232c0 -107 -76 -197 -234 -208z" />
    <glyph glyph-name="Scommaaccent" unicode="&#x218;" horiz-adv-x="633" 
d="M332 426c153 -39 269 -72 269 -232c0 -114 -86 -209 -266 -209c-175 0 -308 91 -315 253h119c6 -91 68 -151 196 -151c106 0 147 47 147 102c0 85 -61 101 -202 136c-112 28 -233 71 -233 207c0 127 98 198 254 198c157 0 271 -82 281 -229h-119c-11 83 -63 127 -162 127
c-85 0 -136 -32 -136 -85c0 -78 67 -92 167 -117zM348 -164c-35 -10 -64 9 -64 50c0 34 26 59 57 59c42 0 63 -37 63 -86c0 -51 -28 -110 -111 -122v42c34 6 55 23 55 57z" />
    <glyph glyph-name="T" unicode="T" horiz-adv-x="616" 
d="M249 0v614h-229v101h576v-101h-228v-614h-119z" />
    <glyph glyph-name="Tbar" unicode="&#x166;" horiz-adv-x="616" 
d="M596 614h-228v-206h151v-76h-151v-332h-119v332h-151v76h151v206h-229v101h576v-101z" />
    <glyph glyph-name="Tcaron" unicode="&#x164;" horiz-adv-x="616" 
d="M156 927h99l52 -79h2l53 79h99l-97 -131h-111zM249 0v614h-229v101h576v-101h-228v-614h-119z" />
    <glyph glyph-name="uni0162" unicode="&#x162;" horiz-adv-x="616" 
d="M336 0l-40 -49v-2c44 6 101 -10 101 -62c0 -48 -54 -76 -112 -76c-43 0 -84 12 -109 29l24 29c22 -9 44 -15 73 -15c28 0 52 13 52 34c0 19 -16 27 -47 27c-11 0 -28 -3 -38 -7l-14 21l57 71h-34v614h-229v101h576v-101h-228v-614h-32z" />
    <glyph glyph-name="uni021A" unicode="&#x21a;" horiz-adv-x="616" 
d="M249 0v614h-229v101h576v-101h-228v-614h-119zM312 -156c-35 -10 -64 9 -64 50c0 34 26 59 57 59c42 0 63 -37 63 -86c0 -51 -28 -110 -111 -122v42c34 6 55 23 55 57z" />
    <glyph glyph-name="U" unicode="U" horiz-adv-x="667" 
d="M615 244c0 -156 -83 -259 -282 -259s-282 103 -282 259v471h119v-471c0 -108 54 -157 163 -157c110 0 164 49 164 157v471h118v-471z" />
    <glyph glyph-name="Uacute" unicode="&#xda;" horiz-adv-x="667" 
d="M333 927h122l-83 -131h-82zM615 244c0 -156 -83 -259 -282 -259s-282 103 -282 259v471h119v-471c0 -108 54 -157 163 -157c110 0 164 49 164 157v471h118v-471z" />
    <glyph glyph-name="Ucircumflex" unicode="&#xdb;" horiz-adv-x="667" 
d="M181 797l97 131h111l97 -131h-99l-53 79h-2l-52 -79h-99zM615 244c0 -156 -83 -259 -282 -259s-282 103 -282 259v471h119v-471c0 -108 54 -157 163 -157c110 0 164 49 164 157v471h118v-471z" />
    <glyph glyph-name="Udieresis" unicode="&#xdc;" horiz-adv-x="667" 
d="M189 870c0 32 21 59 59 59c37 0 58 -27 58 -59c0 -30 -21 -57 -58 -57c-38 0 -59 27 -59 57zM360 870c0 32 21 59 59 59c37 0 58 -27 58 -59c0 -30 -21 -57 -58 -57c-38 0 -59 27 -59 57zM615 244c0 -156 -83 -259 -282 -259s-282 103 -282 259v471h119v-471
c0 -108 54 -157 163 -157c110 0 164 49 164 157v471h118v-471z" />
    <glyph glyph-name="Ugrave" unicode="&#xd9;" horiz-adv-x="667" 
d="M332 927l43 -131h-82l-83 131h122zM615 244c0 -156 -83 -259 -282 -259s-282 103 -282 259v471h119v-471c0 -108 54 -157 163 -157c110 0 164 49 164 157v471h118v-471z" />
    <glyph glyph-name="Uhungarumlaut" unicode="&#x170;" horiz-adv-x="667" 
d="M245 927h122l-83 -131h-82zM412 927h122l-83 -131h-82zM615 244c0 -156 -83 -259 -282 -259s-282 103 -282 259v471h119v-471c0 -108 54 -157 163 -157c110 0 164 49 164 157v471h118v-471z" />
    <glyph glyph-name="Umacron" unicode="&#x16a;" horiz-adv-x="667" 
d="M200 904h267v-80h-267v80zM615 244c0 -156 -83 -259 -282 -259s-282 103 -282 259v471h119v-471c0 -108 54 -157 163 -157c110 0 164 49 164 157v471h118v-471z" />
    <glyph glyph-name="Uogonek" unicode="&#x172;" horiz-adv-x="667" 
d="M497 715h118v-471c0 -121 -50 -210 -165 -244c-38 -30 -60 -56 -60 -78c0 -18 15 -28 35 -28c18 0 32 4 46 9v-70c-20 -6 -46 -10 -70 -10c-65 0 -98 30 -98 77c0 36 22 66 49 85h-19c-199 0 -282 103 -282 259v471h119v-471c0 -108 54 -157 163 -157
c110 0 164 49 164 157v471z" />
    <glyph glyph-name="Uring" unicode="&#x16e;" horiz-adv-x="667" 
d="M333 783c-50 0 -92 35 -92 91c0 54 42 92 92 92s92 -38 92 -92c0 -56 -42 -91 -92 -91zM333 827c24 0 45 18 45 47s-21 47 -45 47s-45 -18 -45 -47s21 -47 45 -47zM615 244c0 -156 -83 -259 -282 -259s-282 103 -282 259v471h119v-471c0 -108 54 -157 163 -157
c110 0 164 49 164 157v471h118v-471z" />
    <glyph glyph-name="V" unicode="V" horiz-adv-x="629" 
d="M6 715h126l182 -585h1l182 585h126l-244 -715h-129z" />
    <glyph glyph-name="W" unicode="W" horiz-adv-x="922" 
d="M10 715h122l122 -554h2l144 554h122l145 -554h2l122 554h122l-179 -715h-125l-147 560h-2l-146 -560h-126z" />
    <glyph glyph-name="Wacute" unicode="&#x1e82;" horiz-adv-x="922" 
d="M461 927h122l-83 -131h-82zM10 715h122l122 -554h2l144 554h122l145 -554h2l122 554h122l-179 -715h-125l-147 560h-2l-146 -560h-126z" />
    <glyph glyph-name="Wcircumflex" unicode="&#x174;" horiz-adv-x="922" 
d="M309 797l97 131h111l97 -131h-99l-53 79h-2l-52 -79h-99zM10 715h122l122 -554h2l144 554h122l145 -554h2l122 554h122l-179 -715h-125l-147 560h-2l-146 -560h-126z" />
    <glyph glyph-name="Wdieresis" unicode="&#x1e84;" horiz-adv-x="922" 
d="M317 870c0 32 21 59 59 59c37 0 58 -27 58 -59c0 -30 -21 -57 -58 -57c-38 0 -59 27 -59 57zM488 870c0 32 21 59 59 59c37 0 58 -27 58 -59c0 -30 -21 -57 -58 -57c-38 0 -59 27 -59 57zM10 715h122l122 -554h2l144 554h122l145 -554h2l122 554h122l-179 -715h-125
l-147 560h-2l-146 -560h-126z" />
    <glyph glyph-name="Wgrave" unicode="&#x1e80;" horiz-adv-x="922" 
d="M460 927l43 -131h-82l-83 131h122zM10 715h122l122 -554h2l144 554h122l145 -554h2l122 554h122l-179 -715h-125l-147 560h-2l-146 -560h-126z" />
    <glyph glyph-name="X" unicode="X" horiz-adv-x="640" 
d="M252 365l-224 350h129l162 -264h1l163 264h129l-224 -348l242 -367h-139l-171 279h-1l-170 -279h-139z" />
    <glyph glyph-name="Y" unicode="Y" horiz-adv-x="641" 
d="M7 715h127l185 -332h2l186 332h127l-254 -431v-284h-119v284z" />
    <glyph glyph-name="Yacute" unicode="&#xdd;" horiz-adv-x="641" 
d="M321 927h122l-83 -131h-82zM7 715h127l185 -332h2l186 332h127l-254 -431v-284h-119v284z" />
    <glyph glyph-name="Ycircumflex" unicode="&#x176;" horiz-adv-x="641" 
d="M169 797l97 131h111l97 -131h-99l-53 79h-2l-52 -79h-99zM7 715h127l185 -332h2l186 332h127l-254 -431v-284h-119v284z" />
    <glyph glyph-name="Ydieresis" unicode="&#x178;" horiz-adv-x="641" 
d="M177 870c0 32 21 59 59 59c37 0 58 -27 58 -59c0 -30 -21 -57 -58 -57c-38 0 -59 27 -59 57zM348 870c0 32 21 59 59 59c37 0 58 -27 58 -59c0 -30 -21 -57 -58 -57c-38 0 -59 27 -59 57zM7 715h127l185 -332h2l186 332h127l-254 -431v-284h-119v284z" />
    <glyph glyph-name="Ygrave" unicode="&#x1ef2;" horiz-adv-x="641" 
d="M320 927l43 -131h-82l-83 131h122zM7 715h127l185 -332h2l186 332h127l-254 -431v-284h-119v284z" />
    <glyph glyph-name="Z" unicode="Z" horiz-adv-x="618" 
d="M49 715h526v-101l-401 -511v-2h411v-101h-556v101l401 511v2h-381v101z" />
    <glyph glyph-name="Zacute" unicode="&#x179;" horiz-adv-x="618" 
d="M310 927h122l-83 -131h-82zM49 715h526v-101l-401 -511v-2h411v-101h-556v101l401 511v2h-381v101z" />
    <glyph glyph-name="Zcaron" unicode="&#x17d;" horiz-adv-x="618" 
d="M158 927h99l52 -79h2l53 79h99l-97 -131h-111zM49 715h526v-101l-401 -511v-2h411v-101h-556v101l401 511v2h-381v101z" />
    <glyph glyph-name="Zdotaccent" unicode="&#x17b;" horiz-adv-x="618" 
d="M251 870c0 32 21 59 59 59c37 0 58 -27 58 -59c0 -30 -21 -57 -58 -57c-38 0 -59 27 -59 57zM49 715h526v-101l-401 -511v-2h411v-101h-556v101l401 511v2h-381v101z" />
    <glyph glyph-name="a" unicode="a" horiz-adv-x="524" 
d="M359 377c0 37 -22 65 -92 65c-84 0 -115 -26 -120 -92h-102c5 98 68 175 222 175c113 0 197 -43 197 -179v-243c0 -36 8 -55 49 -51v-50c-24 -9 -41 -11 -61 -11c-56 0 -82 20 -92 70h-2c-32 -45 -90 -76 -169 -76c-104 0 -168 60 -168 146c0 112 83 147 211 172
c79 15 127 25 127 74zM212 68c87 0 147 43 147 126v77c-17 -12 -58 -24 -107 -34c-87 -19 -125 -44 -125 -96c0 -47 28 -73 85 -73z" />
    <glyph glyph-name="aacute" unicode="&#xe1;" horiz-adv-x="524" 
d="M267 723h122l-83 -131h-82zM359 377c0 37 -22 65 -92 65c-84 0 -115 -26 -120 -92h-102c5 98 68 175 222 175c113 0 197 -43 197 -179v-243c0 -36 8 -55 49 -51v-50c-24 -9 -41 -11 -61 -11c-56 0 -82 20 -92 70h-2c-32 -45 -90 -76 -169 -76c-104 0 -168 60 -168 146
c0 112 83 147 211 172c79 15 127 25 127 74zM212 68c87 0 147 43 147 126v77c-17 -12 -58 -24 -107 -34c-87 -19 -125 -44 -125 -96c0 -47 28 -73 85 -73z" />
    <glyph glyph-name="abreve" unicode="&#x103;" horiz-adv-x="524" 
d="M267 588c-78 0 -135 46 -138 135h70c3 -42 25 -63 68 -63s64 21 67 63h70c-4 -86 -58 -135 -137 -135zM359 377c0 37 -22 65 -92 65c-84 0 -115 -26 -120 -92h-102c5 98 68 175 222 175c113 0 197 -43 197 -179v-243c0 -36 8 -55 49 -51v-50c-24 -9 -41 -11 -61 -11
c-56 0 -82 20 -92 70h-2c-32 -45 -90 -76 -169 -76c-104 0 -168 60 -168 146c0 112 83 147 211 172c79 15 127 25 127 74zM212 68c87 0 147 43 147 126v77c-17 -12 -58 -24 -107 -34c-87 -19 -125 -44 -125 -96c0 -47 28 -73 85 -73z" />
    <glyph glyph-name="acircumflex" unicode="&#xe2;" horiz-adv-x="524" 
d="M115 593l97 131h111l97 -131h-99l-53 79h-2l-52 -79h-99zM359 377c0 37 -22 65 -92 65c-84 0 -115 -26 -120 -92h-102c5 98 68 175 222 175c113 0 197 -43 197 -179v-243c0 -36 8 -55 49 -51v-50c-24 -9 -41 -11 -61 -11c-56 0 -82 20 -92 70h-2
c-32 -45 -90 -76 -169 -76c-104 0 -168 60 -168 146c0 112 83 147 211 172c79 15 127 25 127 74zM212 68c87 0 147 43 147 126v77c-17 -12 -58 -24 -107 -34c-87 -19 -125 -44 -125 -96c0 -47 28 -73 85 -73z" />
    <glyph glyph-name="adieresis" unicode="&#xe4;" horiz-adv-x="524" 
d="M123 666c0 32 21 59 59 59c37 0 58 -27 58 -59c0 -30 -21 -57 -58 -57c-38 0 -59 27 -59 57zM294 666c0 32 21 59 59 59c37 0 58 -27 58 -59c0 -30 -21 -57 -58 -57c-38 0 -59 27 -59 57zM359 377c0 37 -22 65 -92 65c-84 0 -115 -26 -120 -92h-102c5 98 68 175 222 175
c113 0 197 -43 197 -179v-243c0 -36 8 -55 49 -51v-50c-24 -9 -41 -11 -61 -11c-56 0 -82 20 -92 70h-2c-32 -45 -90 -76 -169 -76c-104 0 -168 60 -168 146c0 112 83 147 211 172c79 15 127 25 127 74zM212 68c87 0 147 43 147 126v77c-17 -12 -58 -24 -107 -34
c-87 -19 -125 -44 -125 -96c0 -47 28 -73 85 -73z" />
    <glyph glyph-name="agrave" unicode="&#xe0;" horiz-adv-x="524" 
d="M266 723l43 -131h-82l-83 131h122zM359 377c0 37 -22 65 -92 65c-84 0 -115 -26 -120 -92h-102c5 98 68 175 222 175c113 0 197 -43 197 -179v-243c0 -36 8 -55 49 -51v-50c-24 -9 -41 -11 -61 -11c-56 0 -82 20 -92 70h-2c-32 -45 -90 -76 -169 -76
c-104 0 -168 60 -168 146c0 112 83 147 211 172c79 15 127 25 127 74zM212 68c87 0 147 43 147 126v77c-17 -12 -58 -24 -107 -34c-87 -19 -125 -44 -125 -96c0 -47 28 -73 85 -73z" />
    <glyph glyph-name="amacron" unicode="&#x101;" horiz-adv-x="524" 
d="M134 700h267v-80h-267v80zM359 377c0 37 -22 65 -92 65c-84 0 -115 -26 -120 -92h-102c5 98 68 175 222 175c113 0 197 -43 197 -179v-243c0 -36 8 -55 49 -51v-50c-24 -9 -41 -11 -61 -11c-56 0 -82 20 -92 70h-2c-32 -45 -90 -76 -169 -76c-104 0 -168 60 -168 146
c0 112 83 147 211 172c79 15 127 25 127 74zM212 68c87 0 147 43 147 126v77c-17 -12 -58 -24 -107 -34c-87 -19 -125 -44 -125 -96c0 -47 28 -73 85 -73z" />
    <glyph glyph-name="aogonek" unicode="&#x105;" horiz-adv-x="524" 
d="M482 -106c18 0 32 4 46 9v-70c-20 -6 -46 -10 -70 -10c-65 0 -98 30 -98 77c0 41 30 76 61 94c-35 6 -53 27 -61 67h-2c-32 -45 -90 -76 -169 -76c-104 0 -168 60 -168 146c0 112 83 147 211 172c79 15 127 25 127 74c0 37 -22 65 -92 65c-84 0 -115 -26 -120 -92h-102
c5 98 68 175 222 175c113 0 197 -43 197 -179v-243c0 -36 8 -55 49 -51v-50c-2 -1 -4 -2 -6 -2c-38 -30 -60 -56 -60 -78c0 -18 15 -28 35 -28zM359 194v77c-17 -12 -58 -24 -107 -34c-87 -19 -125 -44 -125 -96c0 -47 28 -73 85 -73c87 0 147 43 147 126z" />
    <glyph glyph-name="aring" unicode="&#xe5;" horiz-adv-x="524" 
d="M267 579c-50 0 -92 35 -92 91c0 54 42 92 92 92s92 -38 92 -92c0 -56 -42 -91 -92 -91zM267 623c24 0 45 18 45 47s-21 47 -45 47s-45 -18 -45 -47s21 -47 45 -47zM359 377c0 37 -22 65 -92 65c-84 0 -115 -26 -120 -92h-102c5 98 68 175 222 175c113 0 197 -43 197 -179
v-243c0 -36 8 -55 49 -51v-50c-24 -9 -41 -11 -61 -11c-56 0 -82 20 -92 70h-2c-32 -45 -90 -76 -169 -76c-104 0 -168 60 -168 146c0 112 83 147 211 172c79 15 127 25 127 74zM212 68c87 0 147 43 147 126v77c-17 -12 -58 -24 -107 -34c-87 -19 -125 -44 -125 -96
c0 -47 28 -73 85 -73z" />
    <glyph glyph-name="atilde" unicode="&#xe3;" horiz-adv-x="524" 
d="M119 614c0 76 35 107 78 107c48 0 94 -37 124 -37c23 0 26 20 26 35h68c0 -78 -35 -107 -79 -107c-48 0 -93 37 -124 37c-23 0 -26 -21 -26 -35h-67zM359 377c0 37 -22 65 -92 65c-84 0 -115 -26 -120 -92h-102c5 98 68 175 222 175c113 0 197 -43 197 -179v-243
c0 -36 8 -55 49 -51v-50c-24 -9 -41 -11 -61 -11c-56 0 -82 20 -92 70h-2c-32 -45 -90 -76 -169 -76c-104 0 -168 60 -168 146c0 112 83 147 211 172c79 15 127 25 127 74zM212 68c87 0 147 43 147 126v77c-17 -12 -58 -24 -107 -34c-87 -19 -125 -44 -125 -96
c0 -47 28 -73 85 -73z" />
    <glyph glyph-name="ae" unicode="&#xe6;" horiz-adv-x="878" 
d="M612 71c87 0 122 54 131 85h105c-26 -97 -102 -171 -233 -171c-88 0 -158 34 -202 92c-56 -72 -146 -92 -217 -92c-111 0 -175 60 -175 146c0 112 83 147 211 172c79 15 127 25 127 74c0 37 -22 65 -92 65c-84 0 -115 -26 -120 -92h-102c5 98 68 175 222 175
c72 0 133 -18 167 -66c43 43 103 66 176 66c165 0 246 -115 246 -297h-392c0 -86 55 -157 148 -157zM610 442c-85 0 -146 -57 -146 -136h287c0 79 -56 136 -141 136zM359 194v77c-17 -12 -58 -24 -107 -34c-87 -19 -125 -44 -125 -96c0 -47 28 -73 85 -73
c101 0 147 60 147 126z" />
    <glyph glyph-name="b" unicode="b" horiz-adv-x="564" 
d="M313 525c131 0 228 -102 228 -270s-97 -270 -228 -270c-79 0 -129 39 -156 74h-2v-59h-105v715h105v-266h2c27 39 77 76 156 76zM295 71c92 0 141 84 141 184s-49 184 -141 184c-86 0 -139 -70 -139 -184c0 -113 53 -184 139 -184z" />
    <glyph glyph-name="c" unicode="c" horiz-adv-x="526" 
d="M402 324c-4 52 -37 115 -127 115c-103 0 -147 -88 -147 -184s43 -184 147 -184c90 0 123 62 127 119h105c-8 -118 -99 -205 -232 -205c-153 0 -252 110 -252 270s99 270 251 270c133 0 220 -85 233 -201h-105z" />
    <glyph glyph-name="cacute" unicode="&#x107;" horiz-adv-x="526" 
d="M266 723h122l-83 -131h-82zM402 324c-4 52 -37 115 -127 115c-103 0 -147 -88 -147 -184s43 -184 147 -184c90 0 123 62 127 119h105c-8 -118 -99 -205 -232 -205c-153 0 -252 110 -252 270s99 270 251 270c133 0 220 -85 233 -201h-105z" />
    <glyph glyph-name="ccaron" unicode="&#x10d;" horiz-adv-x="526" 
d="M114 723h99l52 -79h2l53 79h99l-97 -131h-111zM402 324c-4 52 -37 115 -127 115c-103 0 -147 -88 -147 -184s43 -184 147 -184c90 0 123 62 127 119h105c-8 -118 -99 -205 -232 -205c-153 0 -252 110 -252 270s99 270 251 270c133 0 220 -85 233 -201h-105z" />
    <glyph glyph-name="ccedilla" unicode="&#xe7;" horiz-adv-x="526" 
d="M275 71c90 0 123 62 127 119h105c-8 -113 -92 -198 -216 -205l-35 -42v-2c44 6 101 -10 101 -62c0 -48 -54 -76 -112 -76c-43 0 -84 12 -109 29l24 29c22 -9 44 -15 73 -15c28 0 52 13 52 34c0 19 -16 27 -47 27c-11 0 -28 -3 -38 -7l-14 21l53 66
c-132 16 -216 121 -216 268c0 160 99 270 251 270c133 0 220 -85 233 -201h-105c-4 52 -37 115 -127 115c-103 0 -147 -88 -147 -184s43 -184 147 -184z" />
    <glyph glyph-name="cdotaccent" unicode="&#x10b;" horiz-adv-x="526" 
d="M207 666c0 32 21 59 59 59c37 0 58 -27 58 -59c0 -30 -21 -57 -58 -57c-38 0 -59 27 -59 57zM402 324c-4 52 -37 115 -127 115c-103 0 -147 -88 -147 -184s43 -184 147 -184c90 0 123 62 127 119h105c-8 -118 -99 -205 -232 -205c-153 0 -252 110 -252 270
s99 270 251 270c133 0 220 -85 233 -201h-105z" />
    <glyph glyph-name="d" unicode="d" horiz-adv-x="564" 
d="M409 715h105v-715h-105v59h-2c-27 -35 -77 -74 -156 -74c-131 0 -228 102 -228 270s97 270 228 270c79 0 129 -37 156 -76h2v266zM269 71c86 0 139 71 139 184c0 114 -53 184 -139 184c-92 0 -141 -84 -141 -184s49 -184 141 -184z" />
    <glyph glyph-name="eth" unicode="&#xf0;" horiz-adv-x="560" 
d="M411 623c64 -71 125 -177 125 -321c0 -156 -70 -318 -261 -318c-162 0 -252 109 -252 273c0 171 110 271 240 271c62 0 116 -32 148 -77v2c-18 54 -53 102 -96 145l-150 -40l-13 52l115 31c-35 29 -72 54 -107 74h138c19 -10 42 -26 68 -48l123 33l14 -52zM275 73
c95 0 152 81 152 184s-57 183 -152 183c-96 0 -147 -80 -147 -183s51 -184 147 -184z" />
    <glyph glyph-name="dcaron" unicode="&#x10f;" horiz-adv-x="587" 
d="M628 720c43 0 65 -37 65 -86c0 -52 -33 -114 -119 -123v39c33 5 66 28 66 55c-44 -10 -74 17 -74 55c0 34 24 60 62 60zM409 449v266h105v-715h-105v59h-2c-27 -35 -77 -74 -156 -74c-131 0 -228 102 -228 270s97 270 228 270c79 0 129 -37 156 -76h2zM269 71
c86 0 139 71 139 184c0 114 -53 184 -139 184c-92 0 -141 -84 -141 -184s49 -184 141 -184z" />
    <glyph glyph-name="dcroat" unicode="&#x111;" horiz-adv-x="568" 
d="M577 658v-76h-63v-582h-105v59h-2c-27 -35 -77 -74 -156 -74c-131 0 -228 102 -228 270s97 270 228 270c79 0 129 -37 156 -76h2v133h-146v76h146v57h105v-57h63zM269 71c86 0 139 71 139 184c0 114 -53 184 -139 184c-92 0 -141 -84 -141 -184s49 -184 141 -184z" />
    <glyph glyph-name="e" unicode="e" horiz-adv-x="542" 
d="M276 71c87 0 122 54 131 85h105c-26 -97 -102 -171 -233 -171c-159 0 -256 110 -256 270c0 166 97 270 251 270c165 0 246 -115 246 -297h-392c0 -86 55 -157 148 -157zM274 442c-85 0 -146 -57 -146 -136h287c0 79 -56 136 -141 136z" />
    <glyph glyph-name="eacute" unicode="&#xe9;" horiz-adv-x="542" 
d="M394 723l-83 -131h-82l43 131h122zM276 71c87 0 122 54 131 85h105c-26 -97 -102 -171 -233 -171c-159 0 -256 110 -256 270c0 166 97 270 251 270c165 0 246 -115 246 -297h-392c0 -86 55 -157 148 -157zM274 442c-85 0 -146 -57 -146 -136h287c0 79 -56 136 -141 136z
" />
    <glyph glyph-name="ecaron" unicode="&#x11b;" horiz-adv-x="542" 
d="M328 592h-111l-97 131h99l52 -79h2l53 79h99zM276 71c87 0 122 54 131 85h105c-26 -97 -102 -171 -233 -171c-159 0 -256 110 -256 270c0 166 97 270 251 270c165 0 246 -115 246 -297h-392c0 -86 55 -157 148 -157zM274 442c-85 0 -146 -57 -146 -136h287
c0 79 -56 136 -141 136z" />
    <glyph glyph-name="ecircumflex" unicode="&#xea;" horiz-adv-x="542" 
d="M271 672l-52 -79h-99l97 131h111l97 -131h-99l-53 79h-2zM276 71c87 0 122 54 131 85h105c-26 -97 -102 -171 -233 -171c-159 0 -256 110 -256 270c0 166 97 270 251 270c165 0 246 -115 246 -297h-392c0 -86 55 -157 148 -157zM274 442c-85 0 -146 -57 -146 -136h287
c0 79 -56 136 -141 136z" />
    <glyph glyph-name="edieresis" unicode="&#xeb;" horiz-adv-x="542" 
d="M187 609c-38 0 -59 27 -59 57c0 32 21 59 59 59c37 0 58 -27 58 -59c0 -30 -21 -57 -58 -57zM358 609c-38 0 -59 27 -59 57c0 32 21 59 59 59c37 0 58 -27 58 -59c0 -30 -21 -57 -58 -57zM276 71c87 0 122 54 131 85h105c-26 -97 -102 -171 -233 -171
c-159 0 -256 110 -256 270c0 166 97 270 251 270c165 0 246 -115 246 -297h-392c0 -86 55 -157 148 -157zM274 442c-85 0 -146 -57 -146 -136h287c0 79 -56 136 -141 136z" />
    <glyph glyph-name="edotaccent" unicode="&#x117;" horiz-adv-x="542" 
d="M272 609c-38 0 -59 27 -59 57c0 32 21 59 59 59c37 0 58 -27 58 -59c0 -30 -21 -57 -58 -57zM276 71c87 0 122 54 131 85h105c-26 -97 -102 -171 -233 -171c-159 0 -256 110 -256 270c0 166 97 270 251 270c165 0 246 -115 246 -297h-392c0 -86 55 -157 148 -157z
M274 442c-85 0 -146 -57 -146 -136h287c0 79 -56 136 -141 136z" />
    <glyph glyph-name="egrave" unicode="&#xe8;" horiz-adv-x="542" 
d="M314 592h-82l-83 131h122zM276 71c87 0 122 54 131 85h105c-26 -97 -102 -171 -233 -171c-159 0 -256 110 -256 270c0 166 97 270 251 270c165 0 246 -115 246 -297h-392c0 -86 55 -157 148 -157zM274 442c-85 0 -146 -57 -146 -136h287c0 79 -56 136 -141 136z" />
    <glyph glyph-name="emacron" unicode="&#x113;" horiz-adv-x="542" 
d="M406 700v-80h-267v80h267zM276 71c87 0 122 54 131 85h105c-26 -97 -102 -171 -233 -171c-159 0 -256 110 -256 270c0 166 97 270 251 270c165 0 246 -115 246 -297h-392c0 -86 55 -157 148 -157zM274 442c-85 0 -146 -57 -146 -136h287c0 79 -56 136 -141 136z" />
    <glyph glyph-name="eogonek" unicode="&#x119;" horiz-adv-x="542" 
d="M276 71c87 0 122 54 131 85h105c-20 -73 -67 -133 -146 -158c-36 -29 -57 -55 -57 -76c0 -18 15 -28 35 -28c18 0 32 4 46 9v-70c-20 -6 -46 -10 -70 -10c-65 0 -98 30 -98 77c0 36 22 66 48 85c-154 4 -247 113 -247 270c0 166 97 270 251 270c165 0 246 -115 246 -297
h-392c0 -86 55 -157 148 -157zM274 442c-85 0 -146 -57 -146 -136h287c0 79 -56 136 -141 136z" />
    <glyph glyph-name="f" unicode="f" horiz-adv-x="311" 
d="M291 629c-68 3 -94 -4 -94 -62v-56h94v-86h-94v-425h-106v425h-73v86h73v65c0 108 46 146 130 146c26 0 49 -3 70 -7v-86z" />
    <glyph glyph-name="g" unicode="g" horiz-adv-x="559" 
d="M404 511h105v-476c0 -147 -89 -212 -234 -212c-147 0 -228 77 -239 163h106c10 -45 46 -79 129 -79c88 0 133 40 133 132v62h-2c-27 -38 -74 -76 -155 -76c-128 0 -224 89 -224 250c0 162 96 250 224 250c81 0 128 -38 155 -74h2v60zM267 111c85 0 136 56 136 164
s-51 164 -136 164c-92 0 -139 -69 -139 -164c0 -94 47 -164 139 -164z" />
    <glyph glyph-name="gbreve" unicode="&#x11f;" horiz-adv-x="559" 
d="M263 588c-78 0 -135 46 -138 135h70c3 -42 25 -63 68 -63s64 21 67 63h70c-4 -86 -58 -135 -137 -135zM404 511h105v-476c0 -147 -89 -212 -234 -212c-147 0 -228 77 -239 163h106c10 -45 46 -79 129 -79c88 0 133 40 133 132v62h-2c-27 -38 -74 -76 -155 -76
c-128 0 -224 89 -224 250c0 162 96 250 224 250c81 0 128 -38 155 -74h2v60zM267 111c85 0 136 56 136 164s-51 164 -136 164c-92 0 -139 -69 -139 -164c0 -94 47 -164 139 -164z" />
    <glyph glyph-name="gcommaaccent" unicode="&#x123;" horiz-adv-x="559" 
d="M265 570c-43 0 -65 37 -65 87s28 116 110 128v-42c-33 -6 -55 -30 -55 -64c35 10 65 -9 65 -51c0 -34 -24 -58 -55 -58zM404 511h105v-476c0 -147 -89 -212 -234 -212c-147 0 -228 77 -239 163h106c10 -45 46 -79 129 -79c88 0 133 40 133 132v62h-2
c-27 -38 -74 -76 -155 -76c-128 0 -224 89 -224 250c0 162 96 250 224 250c81 0 128 -38 155 -74h2v60zM267 111c85 0 136 56 136 164s-51 164 -136 164c-92 0 -139 -69 -139 -164c0 -94 47 -164 139 -164z" />
    <glyph glyph-name="gdotaccent" unicode="&#x121;" horiz-adv-x="559" 
d="M263 609c-38 0 -59 27 -59 57c0 32 21 59 59 59c37 0 58 -27 58 -59c0 -30 -21 -57 -58 -57zM404 511h105v-476c0 -147 -89 -212 -234 -212c-147 0 -228 77 -239 163h106c10 -45 46 -79 129 -79c88 0 133 40 133 132v62h-2c-27 -38 -74 -76 -155 -76
c-128 0 -224 89 -224 250c0 162 96 250 224 250c81 0 128 -38 155 -74h2v60zM267 111c85 0 136 56 136 164s-51 164 -136 164c-92 0 -139 -69 -139 -164c0 -94 47 -164 139 -164z" />
    <glyph glyph-name="h" unicode="h" horiz-adv-x="541" 
d="M323 525c97 0 172 -55 172 -172v-353h-106v323c0 69 -29 113 -102 113c-77 0 -132 -49 -132 -125v-311h-105v715h105v-270h2c27 40 80 80 166 80z" />
    <glyph glyph-name="hbar" unicode="&#x127;" horiz-adv-x="546" 
d="M327 525c97 0 172 -55 172 -172v-353h-106v323c0 69 -29 113 -102 113c-77 0 -132 -49 -132 -125v-311h-105v582h-63v76h63v57h105v-57h148v-76h-148v-137h2c27 40 80 80 166 80z" />
    <glyph glyph-name="i" unicode="i" horiz-adv-x="219" 
d="M109 597c-29 0 -59 20 -59 56s30 55 59 55c31 0 60 -19 60 -55s-29 -56 -60 -56zM57 511h105v-511h-105v511z" />
    <glyph glyph-name="dotlessi" unicode="&#x131;" horiz-adv-x="166" 
d="M30 511h106v-511h-106v511z" />
    <glyph glyph-name="iacute" unicode="&#xed;" horiz-adv-x="166" 
d="M83 723h122l-83 -131h-82zM30 511h106v-511h-106v511z" />
    <glyph glyph-name="icircumflex" unicode="&#xee;" horiz-adv-x="166" 
d="M-69 593l97 131h111l97 -131h-99l-53 79h-2l-52 -79h-99zM30 511h106v-511h-106v511z" />
    <glyph glyph-name="idieresis" unicode="&#xef;" horiz-adv-x="166" 
d="M-61 666c0 32 21 59 59 59c37 0 58 -27 58 -59c0 -30 -21 -57 -58 -57c-38 0 -59 27 -59 57zM110 666c0 32 21 59 59 59c37 0 58 -27 58 -59c0 -30 -21 -57 -58 -57c-38 0 -59 27 -59 57zM30 511h106v-511h-106v511z" />
    <glyph glyph-name="i.loclTRK" horiz-adv-x="166" 
d="M24 666c0 32 21 59 59 59c37 0 58 -27 58 -59c0 -30 -21 -57 -58 -57c-38 0 -59 27 -59 57zM30 511h106v-511h-106v511z" />
    <glyph glyph-name="igrave" unicode="&#xec;" horiz-adv-x="166" 
d="M82 723l43 -131h-82l-83 131h122zM30 511h106v-511h-106v511z" />
    <glyph glyph-name="imacron" unicode="&#x12b;" horiz-adv-x="166" 
d="M-50 700h267v-80h-267v80zM30 511h106v-511h-106v511z" />
    <glyph glyph-name="iogonek" unicode="&#x12f;" horiz-adv-x="166" 
d="M83 609c-38 0 -59 27 -59 57c0 32 21 59 59 59c37 0 58 -27 58 -59c0 -30 -21 -57 -58 -57zM111 -106c18 0 32 4 46 9v-70c-20 -6 -46 -10 -70 -10c-65 0 -98 30 -98 77s39 85 74 100h-33v511h106v-511c-38 -30 -60 -56 -60 -78c0 -18 15 -28 35 -28z" />
    <glyph glyph-name="j" unicode="j" horiz-adv-x="214" 
d="M104 597c-29 0 -59 20 -59 56s30 55 59 55c30 0 60 -19 60 -55s-30 -56 -60 -56zM52 511h105v-535c0 -94 -25 -150 -109 -150c-31 0 -53 4 -82 11v80c68 -4 86 0 86 58v536z" />
    <glyph glyph-name="k" unicode="k" horiz-adv-x="512" 
d="M50 715h105v-409l208 205h129l-194 -190l215 -321h-126l-161 252l-71 -67v-185h-105v715z" />
    <glyph glyph-name="kcommaaccent" unicode="&#x137;" horiz-adv-x="512" 
d="M50 715h105v-409l208 205h129l-194 -190l215 -321h-126l-161 252l-71 -67v-185h-105v715zM279 -164c-35 -10 -64 9 -64 50c0 34 26 59 57 59c42 0 63 -37 63 -86c0 -51 -28 -110 -111 -122v42c34 6 55 23 55 57z" />
    <glyph glyph-name="l" unicode="l" horiz-adv-x="210" 
d="M52 715h106v-715h-106v715z" />
    <glyph glyph-name="lacute" unicode="&#x13a;" horiz-adv-x="204" 
d="M111 901h122l-83 -131h-82zM52 715h106v-715h-106v715z" />
    <glyph glyph-name="lcaron" unicode="&#x13e;" horiz-adv-x="233" 
d="M284 605c-44 -10 -74 17 -74 55c0 34 23 60 61 60c44 0 65 -37 65 -86c0 -52 -33 -114 -118 -123v39c32 5 66 28 66 55zM52 715h106v-715h-106v715z" />
    <glyph glyph-name="lcommaaccent" unicode="&#x13c;" horiz-adv-x="210" 
d="M52 715h106v-715h-106v715zM109 -164c-35 -10 -64 9 -64 50c0 34 26 59 57 59c42 0 63 -37 63 -86c0 -51 -28 -110 -111 -122v42c34 6 55 23 55 57z" />
    <glyph glyph-name="lslash" unicode="&#x142;" horiz-adv-x="243" 
d="M248 515v-90l-69 -50v-375h-106v298l-69 -50v90l69 50v327h106v-250z" />
    <glyph glyph-name="m" unicode="m" horiz-adv-x="817" 
d="M614 525c103 0 156 -62 156 -172v-353h-106v323c0 69 -14 113 -86 113c-71 0 -115 -49 -115 -125v-311h-106v323c0 69 -14 113 -87 113c-70 0 -115 -49 -115 -125v-311h-105v511h105v-66h2c27 40 75 80 152 80c72 0 115 -33 136 -88h2c38 49 88 88 167 88z" />
    <glyph glyph-name="n" unicode="n" horiz-adv-x="541" 
d="M325 525c95 0 170 -55 170 -172v-353h-106v323c0 69 -29 113 -101 113c-81 0 -133 -49 -133 -125v-311h-105v511h105v-66h2c27 40 80 80 168 80z" />
    <glyph glyph-name="nacute" unicode="&#x144;" horiz-adv-x="541" 
d="M404 723l-83 -131h-82l43 131h122zM325 525c95 0 170 -55 170 -172v-353h-106v323c0 69 -29 113 -101 113c-81 0 -133 -49 -133 -125v-311h-105v511h105v-66h2c27 40 80 80 168 80z" />
    <glyph glyph-name="ncaron" unicode="&#x148;" horiz-adv-x="541" 
d="M338 592h-111l-97 131h99l52 -79h2l53 79h99zM325 525c95 0 170 -55 170 -172v-353h-106v323c0 69 -29 113 -101 113c-81 0 -133 -49 -133 -125v-311h-105v511h105v-66h2c27 40 80 80 168 80z" />
    <glyph glyph-name="ncommaaccent" unicode="&#x146;" horiz-adv-x="541" 
d="M325 525c95 0 170 -55 170 -172v-353h-106v323c0 69 -29 113 -101 113c-81 0 -133 -49 -133 -125v-311h-105v511h105v-66h2c27 40 80 80 168 80zM270 -55c42 0 63 -37 63 -86c0 -51 -28 -110 -111 -122v42c34 6 55 23 55 57c-35 -10 -64 9 -64 50c0 34 26 59 57 59z" />
    <glyph glyph-name="eng" unicode="&#x14b;" horiz-adv-x="541" 
d="M325 525c95 0 170 -55 170 -172v-381c0 -107 -46 -145 -130 -145c-28 0 -51 3 -72 7v86c68 -3 96 4 96 62v341c0 69 -29 113 -101 113c-81 0 -133 -49 -133 -125v-311h-105v511h105v-66h2c27 40 80 80 168 80z" />
    <glyph glyph-name="ntilde" unicode="&#xf1;" horiz-adv-x="541" 
d="M227 649c-23 0 -26 -21 -26 -35h-67c0 76 35 107 78 107c48 0 94 -37 124 -37c23 0 26 20 26 35h68c0 -78 -35 -107 -79 -107c-48 0 -93 37 -124 37zM325 525c95 0 170 -55 170 -172v-353h-106v323c0 69 -29 113 -101 113c-81 0 -133 -49 -133 -125v-311h-105v511h105
v-66h2c27 40 80 80 168 80z" />
    <glyph glyph-name="o" unicode="o" horiz-adv-x="560" 
d="M280 -15c160 0 257 111 257 270s-97 270 -257 270s-257 -111 -257 -270s97 -270 257 -270zM280 71c-100 0 -152 79 -152 184c0 106 52 184 152 184s152 -78 152 -184c0 -105 -52 -184 -152 -184z" />
    <glyph glyph-name="oacute" unicode="&#xf3;" horiz-adv-x="560" 
d="M280 723h122l-83 -131h-82zM280 -15c160 0 257 111 257 270s-97 270 -257 270s-257 -111 -257 -270s97 -270 257 -270zM280 71c-100 0 -152 79 -152 184c0 106 52 184 152 184s152 -78 152 -184c0 -105 -52 -184 -152 -184z" />
    <glyph glyph-name="ocircumflex" unicode="&#xf4;" horiz-adv-x="560" 
d="M128 593l97 131h111l97 -131h-99l-53 79h-2l-52 -79h-99zM280 -15c160 0 257 111 257 270s-97 270 -257 270s-257 -111 -257 -270s97 -270 257 -270zM280 71c-100 0 -152 79 -152 184c0 106 52 184 152 184s152 -78 152 -184c0 -105 -52 -184 -152 -184z" />
    <glyph glyph-name="odieresis" unicode="&#xf6;" horiz-adv-x="560" 
d="M136 666c0 32 21 59 59 59c37 0 58 -27 58 -59c0 -30 -21 -57 -58 -57c-38 0 -59 27 -59 57zM307 666c0 32 21 59 59 59c37 0 58 -27 58 -59c0 -30 -21 -57 -58 -57c-38 0 -59 27 -59 57zM280 -15c160 0 257 111 257 270s-97 270 -257 270s-257 -111 -257 -270
s97 -270 257 -270zM280 71c-100 0 -152 79 -152 184c0 106 52 184 152 184s152 -78 152 -184c0 -105 -52 -184 -152 -184z" />
    <glyph glyph-name="ograve" unicode="&#xf2;" horiz-adv-x="560" 
d="M279 723l43 -131h-82l-83 131h122zM280 -15c160 0 257 111 257 270s-97 270 -257 270s-257 -111 -257 -270s97 -270 257 -270zM280 71c-100 0 -152 79 -152 184c0 106 52 184 152 184s152 -78 152 -184c0 -105 -52 -184 -152 -184z" />
    <glyph glyph-name="ohungarumlaut" unicode="&#x151;" horiz-adv-x="560" 
d="M192 723h122l-83 -131h-82zM359 723h122l-83 -131h-82zM280 -15c160 0 257 111 257 270s-97 270 -257 270s-257 -111 -257 -270s97 -270 257 -270zM280 71c-100 0 -152 79 -152 184c0 106 52 184 152 184s152 -78 152 -184c0 -105 -52 -184 -152 -184z" />
    <glyph glyph-name="omacron" unicode="&#x14d;" horiz-adv-x="560" 
d="M147 700h267v-80h-267v80zM280 -15c160 0 257 111 257 270s-97 270 -257 270s-257 -111 -257 -270s97 -270 257 -270zM280 71c-100 0 -152 79 -152 184c0 106 52 184 152 184s152 -78 152 -184c0 -105 -52 -184 -152 -184z" />
    <glyph glyph-name="oslash" unicode="&#xf8;" horiz-adv-x="578" 
d="M555 484l-63 -64c29 -44 45 -101 45 -165c0 -159 -97 -270 -257 -270c-68 0 -125 20 -168 56l-51 -52l-36 37l52 52c-35 46 -54 107 -54 177c0 159 97 270 257 270c74 0 134 -24 178 -65l60 61zM128 255c0 -39 7 -75 22 -104l239 241c-25 30 -62 47 -109 47
c-100 0 -152 -78 -152 -184zM432 255c0 33 -5 64 -15 90l-237 -237c25 -23 58 -37 100 -37c100 0 152 79 152 184z" />
    <glyph glyph-name="otilde" unicode="&#xf5;" horiz-adv-x="560" 
d="M132 614c0 76 35 107 78 107c48 0 94 -37 124 -37c23 0 26 20 26 35h68c0 -78 -35 -107 -79 -107c-48 0 -93 37 -124 37c-23 0 -26 -21 -26 -35h-67zM280 -15c160 0 257 111 257 270s-97 270 -257 270s-257 -111 -257 -270s97 -270 257 -270zM280 71
c-100 0 -152 79 -152 184c0 106 52 184 152 184s152 -78 152 -184c0 -105 -52 -184 -152 -184z" />
    <glyph glyph-name="oe" unicode="&#x153;" horiz-adv-x="970" 
d="M704 71c87 0 122 54 131 85h105c-26 -97 -102 -171 -233 -171c-97 0 -170 41 -213 108c-43 -67 -117 -108 -214 -108c-160 0 -257 111 -257 270s97 270 257 270c96 0 170 -40 213 -107c42 68 115 107 209 107c165 0 246 -115 246 -297h-392c0 -86 55 -157 148 -157z
M702 442c-85 0 -146 -57 -146 -136h287c0 79 -56 136 -141 136zM280 71c100 0 152 79 152 184c0 106 -52 184 -152 184s-152 -78 -152 -184c0 -105 52 -184 152 -184z" />
    <glyph glyph-name="p" unicode="p" horiz-adv-x="568" 
d="M315 525c130 0 227 -102 227 -270s-97 -270 -227 -270c-80 0 -130 38 -157 76h-2v-235h-106v685h106v-60h2c27 36 77 74 157 74zM295 71c92 0 141 84 141 184s-49 184 -141 184c-85 0 -138 -70 -138 -184c0 -113 53 -184 138 -184z" />
    <glyph glyph-name="thorn" unicode="&#xfe;" horiz-adv-x="564" 
d="M315 525c129 0 226 -102 226 -270s-97 -270 -226 -270c-84 0 -131 38 -158 83h-2v-242h-105v889h105v-270h2c27 42 74 80 158 80zM295 71c92 0 141 84 141 184s-49 184 -141 184c-86 0 -139 -70 -139 -184c0 -113 53 -184 139 -184z" />
    <glyph glyph-name="q" unicode="q" horiz-adv-x="568" 
d="M412 511h106v-685h-106v235h-2c-27 -38 -77 -76 -157 -76c-130 0 -227 102 -227 270s97 270 227 270c80 0 130 -38 157 -74h2v60zM273 71c85 0 138 71 138 184c0 114 -53 184 -138 184c-92 0 -141 -84 -141 -184s49 -184 141 -184z" />
    <glyph glyph-name="r" unicode="r" horiz-adv-x="356" 
d="M293 523c18 0 31 -1 46 -3v-99h-2c-101 17 -182 -51 -182 -160v-261h-105v511h105v-96h2c27 64 69 108 136 108z" />
    <glyph glyph-name="racute" unicode="&#x155;" horiz-adv-x="356" 
d="M317 723l-83 -131h-82l43 131h122zM293 523c18 0 31 -1 46 -3v-99h-2c-101 17 -182 -51 -182 -160v-261h-105v511h105v-96h2c27 64 69 108 136 108z" />
    <glyph glyph-name="rcaron" unicode="&#x159;" horiz-adv-x="356" 
d="M251 592h-111l-97 131h99l52 -79h2l53 79h99zM157 415c27 64 69 108 136 108c18 0 31 -1 46 -3v-99h-2c-101 17 -182 -51 -182 -160v-261h-105v511h105v-96h2z" />
    <glyph glyph-name="rcommaaccent" unicode="&#x157;" horiz-adv-x="356" 
d="M293 523c18 0 31 -1 46 -3v-99h-2c-101 17 -182 -51 -182 -160v-261h-105v511h105v-96h2c27 64 69 108 136 108zM103 -55c42 0 63 -37 63 -86c0 -51 -28 -110 -111 -122v42c34 6 55 23 55 57c-35 -10 -64 9 -64 50c0 34 26 59 57 59z" />
    <glyph glyph-name="s" unicode="s" horiz-adv-x="487" 
d="M271 309c94 -22 196 -43 196 -165c0 -98 -84 -159 -208 -159c-165 0 -236 77 -241 185h102c5 -55 29 -102 137 -102c73 0 104 36 104 68c0 64 -61 69 -136 87c-81 19 -191 35 -191 151c0 84 74 151 202 151c139 0 205 -75 212 -164h-102c-7 40 -27 81 -109 81
c-63 0 -97 -24 -97 -60c0 -52 57 -56 131 -73z" />
    <glyph glyph-name="sacute" unicode="&#x15b;" horiz-adv-x="487" 
d="M242 723h122l-83 -131h-82zM271 309c94 -22 196 -43 196 -165c0 -98 -84 -159 -208 -159c-165 0 -236 77 -241 185h102c5 -55 29 -102 137 -102c73 0 104 36 104 68c0 64 -61 69 -136 87c-81 19 -191 35 -191 151c0 84 74 151 202 151c139 0 205 -75 212 -164h-102
c-7 40 -27 81 -109 81c-63 0 -97 -24 -97 -60c0 -52 57 -56 131 -73z" />
    <glyph glyph-name="scaron" unicode="&#x161;" horiz-adv-x="487" 
d="M90 723h99l52 -79h2l53 79h99l-97 -131h-111zM271 309c94 -22 196 -43 196 -165c0 -98 -84 -159 -208 -159c-165 0 -236 77 -241 185h102c5 -55 29 -102 137 -102c73 0 104 36 104 68c0 64 -61 69 -136 87c-81 19 -191 35 -191 151c0 84 74 151 202 151
c139 0 205 -75 212 -164h-102c-7 40 -27 81 -109 81c-63 0 -97 -24 -97 -60c0 -52 57 -56 131 -73z" />
    <glyph glyph-name="scedilla" unicode="&#x15f;" horiz-adv-x="487" 
d="M270 -15l-34 -42v-2c44 6 101 -10 101 -62c0 -48 -54 -76 -112 -76c-43 0 -84 12 -109 29l24 29c22 -9 44 -15 73 -15c28 0 52 13 52 34c0 19 -16 27 -47 27c-11 0 -28 -3 -38 -7l-14 21l53 66c-137 11 -196 84 -201 183h102c5 -55 29 -102 137 -102c73 0 104 36 104 68
c0 64 -61 69 -136 87c-81 19 -191 35 -191 151c0 84 74 151 202 151c139 0 205 -75 212 -164h-102c-7 40 -27 81 -109 81c-63 0 -97 -24 -97 -60c0 -52 57 -56 131 -73c94 -22 196 -43 196 -165c0 -95 -79 -155 -197 -159z" />
    <glyph glyph-name="scommaaccent" unicode="&#x219;" horiz-adv-x="487" 
d="M271 309c94 -22 196 -43 196 -165c0 -98 -84 -159 -208 -159c-165 0 -236 77 -241 185h102c5 -55 29 -102 137 -102c73 0 104 36 104 68c0 64 -61 69 -136 87c-81 19 -191 35 -191 151c0 84 74 151 202 151c139 0 205 -75 212 -164h-102c-7 40 -27 81 -109 81
c-63 0 -97 -24 -97 -60c0 -52 57 -56 131 -73zM252 -164c-35 -10 -64 9 -64 50c0 34 26 59 57 59c42 0 63 -37 63 -86c0 -51 -28 -110 -111 -122v42c34 6 55 23 55 57z" />
    <glyph glyph-name="germandbls" unicode="&#xdf;" horiz-adv-x="531" 
d="M155 506v-506h-105v506c0 135 74 224 221 224c110 0 204 -73 204 -181c0 -86 -51 -127 -109 -152v-2c86 -27 142 -96 142 -201c0 -123 -84 -209 -194 -209c-41 0 -67 5 -102 15v86c129 -41 191 29 191 118c0 115 -83 151 -156 151h-28v80h25c63 0 126 33 126 104
c0 55 -33 105 -99 105c-89 0 -116 -55 -116 -138z" />
    <glyph glyph-name="t" unicode="t" horiz-adv-x="320" 
d="M294 425h-96v-277c0 -58 28 -65 96 -61v-86c-21 -5 -44 -8 -72 -8c-84 0 -130 38 -130 146v286h-74v86h74v161h106v-161h96v-86z" />
    <glyph glyph-name="tbar" unicode="&#x167;" horiz-adv-x="320" 
d="M294 425h-96v-85h96v-77h-96v-115c0 -58 28 -65 96 -61v-86c-21 -5 -44 -8 -72 -8c-84 0 -130 38 -130 146v124h-74v77h74v85h-74v86h74v161h106v-161h96v-86z" />
    <glyph glyph-name="tcaron" unicode="&#x165;" horiz-adv-x="337" 
d="M305 770c43 0 65 -37 65 -86c0 -52 -33 -114 -118 -123v39c32 5 66 28 66 55c-44 -10 -74 17 -74 55c0 34 23 60 61 60zM198 672v-161h96v-86h-96v-277c0 -58 28 -65 96 -61v-86c-21 -5 -44 -8 -72 -8c-84 0 -130 38 -130 146v286h-74v86h74v161h106z" />
    <glyph glyph-name="uni0163" unicode="&#x163;" horiz-adv-x="320" 
d="M201 -53c44 6 101 -10 101 -62c0 -48 -54 -76 -112 -76c-43 0 -84 12 -109 29l24 29c22 -9 44 -15 73 -15c28 0 52 13 52 34c0 19 -16 27 -47 27c-11 0 -28 -3 -38 -7l-14 21l55 69c-61 10 -94 51 -94 143v286h-74v86h74v161h106v-161h96v-86h-96v-277
c0 -58 28 -65 96 -61v-86c-17 -4 -35 -7 -57 -8l-36 -44v-2z" />
    <glyph glyph-name="uni021B" unicode="&#x21b;" horiz-adv-x="320" 
d="M294 425h-96v-277c0 -58 28 -65 96 -61v-86c-21 -5 -44 -8 -72 -8c-84 0 -130 38 -130 146v286h-74v86h74v161h106v-161h96v-86zM210 -49c42 0 63 -37 63 -86c0 -51 -28 -110 -111 -122v42c34 6 55 23 55 57c-35 -10 -64 9 -64 50c0 34 26 59 57 59z" />
    <glyph glyph-name="u" unicode="u" horiz-adv-x="541" 
d="M386 511h105v-511h-105v66h-2c-27 -40 -80 -80 -168 -80c-95 0 -170 55 -170 172v353h106v-323c0 -69 29 -113 101 -113c81 0 133 49 133 125v311z" />
    <glyph glyph-name="uacute" unicode="&#xfa;" horiz-adv-x="541" 
d="M391 723l-83 -131h-82l43 131h122zM386 511h105v-511h-105v66h-2c-27 -40 -80 -80 -168 -80c-95 0 -170 55 -170 172v353h106v-323c0 -69 29 -113 101 -113c81 0 133 49 133 125v311z" />
    <glyph glyph-name="ucircumflex" unicode="&#xfb;" horiz-adv-x="541" 
d="M268 672l-52 -79h-99l97 131h111l97 -131h-99l-53 79h-2zM386 511h105v-511h-105v66h-2c-27 -40 -80 -80 -168 -80c-95 0 -170 55 -170 172v353h106v-323c0 -69 29 -113 101 -113c81 0 133 49 133 125v311z" />
    <glyph glyph-name="udieresis" unicode="&#xfc;" horiz-adv-x="541" 
d="M184 609c-38 0 -59 27 -59 57c0 32 21 59 59 59c37 0 58 -27 58 -59c0 -30 -21 -57 -58 -57zM355 609c-38 0 -59 27 -59 57c0 32 21 59 59 59c37 0 58 -27 58 -59c0 -30 -21 -57 -58 -57zM386 511h105v-511h-105v66h-2c-27 -40 -80 -80 -168 -80c-95 0 -170 55 -170 172
v353h106v-323c0 -69 29 -113 101 -113c81 0 133 49 133 125v311z" />
    <glyph glyph-name="ugrave" unicode="&#xf9;" horiz-adv-x="541" 
d="M311 592h-82l-83 131h122zM386 511h105v-511h-105v66h-2c-27 -40 -80 -80 -168 -80c-95 0 -170 55 -170 172v353h106v-323c0 -69 29 -113 101 -113c81 0 133 49 133 125v311z" />
    <glyph glyph-name="uhungarumlaut" unicode="&#x171;" horiz-adv-x="541" 
d="M303 723l-83 -131h-82l43 131h122zM470 723l-83 -131h-82l43 131h122zM386 511h105v-511h-105v66h-2c-27 -40 -80 -80 -168 -80c-95 0 -170 55 -170 172v353h106v-323c0 -69 29 -113 101 -113c81 0 133 49 133 125v311z" />
    <glyph glyph-name="umacron" unicode="&#x16b;" horiz-adv-x="541" 
d="M403 700v-80h-267v80h267zM386 511h105v-511h-105v66h-2c-27 -40 -80 -80 -168 -80c-95 0 -170 55 -170 172v353h106v-323c0 -69 29 -113 101 -113c81 0 133 49 133 125v311z" />
    <glyph glyph-name="uogonek" unicode="&#x173;" horiz-adv-x="541" 
d="M467 -106c18 0 32 4 46 9v-70c-20 -6 -46 -10 -70 -10c-65 0 -98 30 -98 77s39 85 74 100h-33v66h-2c-27 -40 -80 -80 -168 -80c-95 0 -170 55 -170 172v353h106v-323c0 -69 29 -113 101 -113c81 0 133 49 133 125v311h105v-511h1c-38 -30 -60 -56 -60 -78
c0 -18 15 -28 35 -28z" />
    <glyph glyph-name="uring" unicode="&#x16f;" horiz-adv-x="541" 
d="M269 579c-50 0 -92 35 -92 91c0 54 42 92 92 92s92 -38 92 -92c0 -56 -42 -91 -92 -91zM269 717c-24 0 -45 -18 -45 -47s21 -47 45 -47s45 18 45 47s-21 47 -45 47zM386 511h105v-511h-105v66h-2c-27 -40 -80 -80 -168 -80c-95 0 -170 55 -170 172v353h106v-323
c0 -69 29 -113 101 -113c81 0 133 49 133 125v311z" />
    <glyph glyph-name="v" unicode="v" horiz-adv-x="481" 
d="M0 511h111l129 -400h1l129 400h111l-181 -511h-119z" />
    <glyph glyph-name="w" unicode="w" horiz-adv-x="750" 
d="M2 511h111l104 -388h2l104 388h103l105 -388h2l103 388h111l-156 -511h-106l-110 390h-2l-109 -390h-105z" />
    <glyph glyph-name="wacute" unicode="&#x1e83;" horiz-adv-x="750" 
d="M375 723h122l-83 -131h-82zM2 511h111l104 -388h2l104 388h103l105 -388h2l103 388h111l-156 -511h-106l-110 390h-2l-109 -390h-105z" />
    <glyph glyph-name="wcircumflex" unicode="&#x175;" horiz-adv-x="750" 
d="M223 593l97 131h111l97 -131h-99l-53 79h-2l-52 -79h-99zM2 511h111l104 -388h2l104 388h103l105 -388h2l103 388h111l-156 -511h-106l-110 390h-2l-109 -390h-105z" />
    <glyph glyph-name="wdieresis" unicode="&#x1e85;" horiz-adv-x="750" 
d="M231 666c0 32 21 59 59 59c37 0 58 -27 58 -59c0 -30 -21 -57 -58 -57c-38 0 -59 27 -59 57zM402 666c0 32 21 59 59 59c37 0 58 -27 58 -59c0 -30 -21 -57 -58 -57c-38 0 -59 27 -59 57zM2 511h111l104 -388h2l104 388h103l105 -388h2l103 388h111l-156 -511h-106
l-110 390h-2l-109 -390h-105z" />
    <glyph glyph-name="wgrave" unicode="&#x1e81;" horiz-adv-x="750" 
d="M374 723l43 -131h-82l-83 131h122zM2 511h111l104 -388h2l104 388h103l105 -388h2l103 388h111l-156 -511h-106l-110 390h-2l-109 -390h-105z" />
    <glyph glyph-name="x" unicode="x" horiz-adv-x="521" 
d="M24 511h119l116 -180h2l116 180h119l-172 -250l191 -261h-122l-132 192h-2l-130 -192h-123l191 261z" />
    <glyph glyph-name="y" unicode="y" horiz-adv-x="502" 
d="M501 511l-204 -543c-29 -79 -62 -142 -160 -142c-30 0 -55 5 -75 10v80h9c44 -6 77 -3 100 25c19 23 33 63 14 111l-185 459h113l143 -391h2l131 391h112z" />
    <glyph glyph-name="yacute" unicode="&#xfd;" horiz-adv-x="502" 
d="M251 723h122l-83 -131h-82zM501 511l-204 -543c-29 -79 -62 -142 -160 -142c-30 0 -55 5 -75 10v80h9c44 -6 77 -3 100 25c19 23 33 63 14 111l-185 459h113l143 -391h2l131 391h112z" />
    <glyph glyph-name="ycircumflex" unicode="&#x177;" horiz-adv-x="502" 
d="M99 593l97 131h111l97 -131h-99l-53 79h-2l-52 -79h-99zM501 511l-204 -543c-29 -79 -62 -142 -160 -142c-30 0 -55 5 -75 10v80h9c44 -6 77 -3 100 25c19 23 33 63 14 111l-185 459h113l143 -391h2l131 391h112z" />
    <glyph glyph-name="ydieresis" unicode="&#xff;" horiz-adv-x="502" 
d="M107 666c0 32 21 59 59 59c37 0 58 -27 58 -59c0 -30 -21 -57 -58 -57c-38 0 -59 27 -59 57zM278 666c0 32 21 59 59 59c37 0 58 -27 58 -59c0 -30 -21 -57 -58 -57c-38 0 -59 27 -59 57zM501 511l-204 -543c-29 -79 -62 -142 -160 -142c-30 0 -55 5 -75 10v80h9
c44 -6 77 -3 100 25c19 23 33 63 14 111l-185 459h113l143 -391h2l131 391h112z" />
    <glyph glyph-name="ygrave" unicode="&#x1ef3;" horiz-adv-x="502" 
d="M250 723l43 -131h-82l-83 131h122zM501 511l-204 -543c-29 -79 -62 -142 -160 -142c-30 0 -55 5 -75 10v80h9c44 -6 77 -3 100 25c19 23 33 63 14 111l-185 459h113l143 -391h2l131 391h112z" />
    <glyph glyph-name="z" unicode="z" horiz-adv-x="482" 
d="M31 78l275 345v2h-257v86h398v-70l-281 -353v-2h292v-86h-427v78z" />
    <glyph glyph-name="zacute" unicode="&#x17a;" horiz-adv-x="482" 
d="M249 723h122l-83 -131h-82zM31 78l275 345v2h-257v86h398v-70l-281 -353v-2h292v-86h-427v78z" />
    <glyph glyph-name="zcaron" unicode="&#x17e;" horiz-adv-x="482" 
d="M97 723h99l52 -79h2l53 79h99l-97 -131h-111zM31 78l275 345v2h-257v86h398v-70l-281 -353v-2h292v-86h-427v78z" />
    <glyph glyph-name="zdotaccent" unicode="&#x17c;" horiz-adv-x="482" 
d="M190 666c0 32 21 59 59 59c37 0 58 -27 58 -59c0 -30 -21 -57 -58 -57c-38 0 -59 27 -59 57zM31 78l275 345v2h-257v86h398v-70l-281 -353v-2h292v-86h-427v78z" />
    <glyph glyph-name="zero" unicode="0" horiz-adv-x="631" 
d="M316 -15c-195 0 -278 164 -278 360s83 361 278 361s278 -165 278 -361s-83 -360 -278 -360zM316 84c122 0 162 117 162 261s-40 262 -162 262s-163 -118 -163 -262s41 -261 163 -261z" />
    <glyph glyph-name="one" unicode="1" horiz-adv-x="365" 
d="M199 691h93v-691h-116v501c-41 -40 -87 -40 -145 -40v83c125 0 161 62 168 147z" />
    <glyph glyph-name="two" unicode="2" horiz-adv-x="564" 
d="M157 446h-112c0 149 80 260 257 260c128 0 229 -76 229 -208c0 -220 -295 -257 -352 -398v-2h345v-98h-496c0 122 73 211 179 278c127 84 208 117 208 215c0 57 -27 114 -116 114c-103 0 -142 -66 -142 -161z" />
    <glyph glyph-name="three" unicode="3" horiz-adv-x="578" 
d="M148 482h-113c0 129 88 224 261 224c122 0 230 -69 230 -191c0 -74 -38 -120 -104 -148v-2c94 -27 127 -89 127 -171c0 -136 -101 -209 -251 -209c-182 0 -281 93 -281 252h112c0 -93 43 -153 161 -153c104 0 144 40 144 113c0 95 -69 116 -140 116h-62v92h58
c72 0 120 30 120 101c0 57 -36 101 -118 101c-109 0 -144 -57 -144 -125z" />
    <glyph glyph-name="four" unicode="4" horiz-adv-x="584" 
d="M467 0h-116v157h-327v108l327 426h116v-436h97v-98h-97v-157zM351 547l-224 -292h224v292z" />
    <glyph glyph-name="five" unicode="5" horiz-adv-x="569" 
d="M316 466c133 0 224 -96 224 -231c0 -154 -111 -250 -255 -250c-169 0 -261 100 -265 219h115c7 -62 48 -120 144 -120c85 0 145 52 145 152c0 94 -55 138 -139 138c-54 0 -103 -19 -136 -60h-117l75 377h398v-98h-311l-37 -185v-2c36 37 87 60 159 60z" />
    <glyph glyph-name="six" unicode="6" horiz-adv-x="594" 
d="M154 367c34 56 98 90 178 90c136 0 229 -94 229 -230s-95 -242 -250 -242c-202 0 -273 151 -273 358c0 236 99 363 273 363c130 0 217 -86 231 -190h-116c-7 53 -43 95 -116 95c-125 0 -154 -116 -156 -242v-2zM307 80c89 0 141 57 141 141c0 88 -56 141 -135 141
c-92 0 -153 -58 -153 -143c0 -82 55 -139 147 -139z" />
    <glyph glyph-name="seven" unicode="7" horiz-adv-x="523" 
d="M21 691h488v-88c-157 -131 -263 -383 -263 -603h-122c0 228 136 482 259 591v2h-362v98z" />
    <glyph glyph-name="eight" unicode="8" horiz-adv-x="592" 
d="M29 195c0 95 62 144 128 173v2c-49 26 -95 69 -95 147c0 119 99 189 234 189s234 -70 234 -189c0 -78 -47 -121 -95 -147v-2c65 -29 129 -78 129 -173c0 -140 -117 -210 -268 -210s-267 70 -267 210zM296 411c77 0 125 34 125 101c0 66 -48 102 -125 102
s-125 -36 -125 -102c0 -67 48 -101 125 -101zM296 80c94 0 152 46 152 122c0 75 -58 121 -152 121c-93 0 -152 -46 -152 -121c0 -76 59 -122 152 -122z" />
    <glyph glyph-name="nine" unicode="9" horiz-adv-x="591" 
d="M441 324c-34 -56 -98 -90 -178 -90c-136 0 -229 94 -229 230s95 242 250 242c202 0 273 -151 273 -358c0 -236 -99 -363 -273 -363c-130 0 -217 86 -231 190h116c7 -53 43 -95 116 -95c125 0 154 116 156 242v2zM288 611c-89 0 -141 -57 -141 -141
c0 -88 56 -141 135 -141c92 0 153 58 153 143c0 82 -55 139 -147 139z" />
    <glyph glyph-name="fraction" unicode="&#x2044;" horiz-adv-x="258" 
d="M354 715h83l-533 -715h-83z" />
    <glyph glyph-name="asterisk" unicode="*" horiz-adv-x="390" 
d="M350 575l-100 -31l63 -90l-55 -40l-63 95l-63 -95l-56 40l64 90l-100 31l22 62l99 -35v113h69v-113l98 35z" />
    <glyph glyph-name="backslash" unicode="\" horiz-adv-x="404" 
d="M15 715h96l277 -715h-96z" />
    <glyph glyph-name="periodcentered" unicode="&#xb7;" horiz-adv-x="210" 
d="M107 245c-37 0 -65 25 -65 65c0 39 28 65 65 65c36 0 64 -26 64 -65c0 -40 -28 -65 -64 -65z" />
    <glyph glyph-name="bullet" unicode="&#x2022;" horiz-adv-x="329" 
d="M165 190c-80 0 -130 59 -130 130s50 130 130 130c79 0 129 -59 129 -130s-50 -130 -129 -130z" />
    <glyph glyph-name="colon" unicode=":" horiz-adv-x="216" 
d="M108 299c-37 0 -65 25 -65 65c0 39 28 65 65 65c36 0 64 -26 64 -65c0 -40 -28 -65 -64 -65zM108 -8c-37 0 -65 25 -65 65c0 39 28 65 65 65c36 0 64 -26 64 -65c0 -40 -28 -65 -64 -65z" />
    <glyph glyph-name="comma" unicode="," horiz-adv-x="213" 
d="M111 -7c-39 -7 -71 15 -71 62c0 43 29 67 65 67c45 0 68 -36 68 -92c0 -73 -36 -156 -123 -170v57c37 7 61 38 61 76z" />
    <glyph glyph-name="ellipsis" unicode="&#x2026;" horiz-adv-x="562" 
d="M105 -8c-37 0 -65 25 -65 65c0 39 28 65 65 65c36 0 64 -26 64 -65c0 -40 -28 -65 -64 -65zM281 -8c-37 0 -65 25 -65 65c0 39 28 65 65 65c36 0 64 -26 64 -65c0 -40 -28 -65 -64 -65zM457 -8c-37 0 -65 25 -65 65c0 39 28 65 65 65c36 0 64 -26 64 -65
c0 -40 -28 -65 -64 -65z" />
    <glyph glyph-name="exclam" unicode="!" horiz-adv-x="246" 
d="M69 715h115v-189l-28 -326h-59l-28 326v189zM127 -8c-37 0 -65 25 -65 65c0 39 28 65 65 65c36 0 64 -26 64 -65c0 -40 -28 -65 -64 -65z" />
    <glyph glyph-name="exclamdown" unicode="&#xa1;" horiz-adv-x="253" 
d="M127 593c36 0 64 -25 64 -65c0 -39 -28 -65 -64 -65c-37 0 -65 26 -65 65c0 40 28 65 65 65zM69 -130v189l28 326h59l28 -326v-189h-115z" />
    <glyph glyph-name="numbersign" unicode="#" horiz-adv-x="586" 
d="M541 419h-94l-29 -145h103l-16 -86h-105l-38 -188h-86l38 188h-110l-38 -188h-86l38 188h-89l16 86h91l29 145h-99l17 86h99l38 186h86l-38 -186h110l37 186h87l-38 -186h94zM331 274l29 145h-109l-29 -145h109z" />
    <glyph glyph-name="period" unicode="." horiz-adv-x="210" 
d="M105 -8c-37 0 -65 25 -65 65c0 39 28 65 65 65c36 0 64 -26 64 -65c0 -40 -28 -65 -64 -65z" />
    <glyph glyph-name="question" unicode="?" horiz-adv-x="520" 
d="M132 486h-116c0 139 82 244 254 244c127 0 223 -77 223 -187c0 -86 -47 -125 -107 -168s-102 -75 -102 -176h-103c0 107 37 161 99 213c48 42 97 60 97 129c0 50 -41 90 -110 90c-81 0 -135 -39 -135 -145zM233 -8c-37 0 -65 25 -65 65c0 39 28 65 65 65
c36 0 64 -26 64 -65c0 -40 -28 -65 -64 -65z" />
    <glyph glyph-name="questiondown" unicode="&#xbf;" horiz-adv-x="518" 
d="M285 593c37 0 65 -25 65 -65c0 -39 -28 -65 -65 -65c-36 0 -64 26 -64 65c0 40 28 65 64 65zM386 99h116c0 -139 -82 -244 -254 -244c-127 0 -223 77 -223 187c0 86 47 125 107 168s102 75 102 176h103c0 -107 -37 -161 -99 -213c-48 -42 -97 -60 -97 -129
c0 -50 41 -90 110 -90c81 0 135 39 135 145z" />
    <glyph glyph-name="quotedbl" unicode="&#x22;" horiz-adv-x="345" 
d="M42 715h99l-13 -232h-73zM205 715h99l-13 -232h-73z" />
    <glyph glyph-name="quotesingle" unicode="'" horiz-adv-x="183" 
d="M42 715h99l-13 -232h-73z" />
    <glyph glyph-name="semicolon" unicode=";" horiz-adv-x="219" 
d="M110 299c-37 0 -65 25 -65 65c0 39 28 65 65 65c36 0 64 -26 64 -65c0 -40 -28 -65 -64 -65zM114 -7c-39 -7 -71 15 -71 62c0 43 29 67 65 67c45 0 68 -36 68 -92c0 -73 -36 -156 -123 -170v57c37 7 61 38 61 76z" />
    <glyph glyph-name="slash" unicode="/" horiz-adv-x="409" 
d="M387 715l-277 -715h-96l277 715h96z" />
    <glyph glyph-name="underscore" unicode="_" horiz-adv-x="415" 
d="M-2 -76h419v-98h-419v98z" />
    <glyph glyph-name="braceleft" unicode="{" horiz-adv-x="329" 
d="M24 368c51 -1 62 34 62 85v113c0 168 63 194 190 194h22v-98h-22c-45 0 -75 -20 -75 -93v-142c0 -57 -24 -87 -62 -107v-2c38 -20 62 -50 62 -108v-138c0 -77 30 -97 75 -97h22v-98h-22c-127 0 -190 30 -190 198v109c0 51 -11 86 -62 86v98z" />
    <glyph glyph-name="braceright" unicode="}" horiz-adv-x="329" 
d="M305 368v-98c-51 0 -62 -35 -62 -86v-109c0 -168 -63 -198 -190 -198h-22v98h22c45 0 75 20 75 97v138c0 58 24 88 62 108v2c-38 20 -62 50 -62 107v142c0 73 -30 93 -75 93h-22v98h22c127 0 190 -26 190 -194v-113c0 -51 11 -86 62 -85z" />
    <glyph glyph-name="bracketleft" unicode="[" horiz-adv-x="329" 
d="M71 760h227v-98h-111v-687h111v-98h-227v883z" />
    <glyph glyph-name="bracketright" unicode="]" horiz-adv-x="329" 
d="M258 760v-883h-227v98h111v687h-111v98h227z" />
    <glyph glyph-name="parenleft" unicode="(" horiz-adv-x="316" 
d="M204 760h92c-63 -121 -114 -258 -114 -443c0 -181 51 -319 114 -440h-92c-73 101 -137 259 -137 440c0 187 64 342 137 443z" />
    <glyph glyph-name="parenright" unicode=")" horiz-adv-x="316" 
d="M113 760c73 -101 137 -256 137 -443c0 -181 -64 -339 -137 -440h-92c63 121 114 259 114 440c0 185 -51 322 -114 443h92z" />
    <glyph glyph-name="emdash" unicode="&#x2014;" horiz-adv-x="1000" 
d="M100 303h800v-99h-800v99z" />
    <glyph glyph-name="endash" unicode="&#x2013;" horiz-adv-x="500" 
d="M0 303h500v-98h-500v98z" />
    <glyph glyph-name="hyphen" unicode="-" horiz-adv-x="341" 
d="M36 303h269v-98h-269v98z" />
    <glyph glyph-name="guillemotleft" unicode="&#xab;" horiz-adv-x="391" 
d="M30 197v110l142 123v-102l-89 -75v-2l89 -75v-102zM218 197v110l143 123v-102l-90 -75v-2l90 -75v-102z" />
    <glyph glyph-name="guillemotright" unicode="&#xbb;" horiz-adv-x="391" 
d="M173 197l-143 -123v102l90 75v2l-90 75v102l143 -123v-110zM361 197l-142 -123v102l89 75v2l-89 75v102l142 -123v-110z" />
    <glyph glyph-name="guilsinglleft" unicode="&#x2039;" horiz-adv-x="252" 
d="M48 197v110l154 123v-102l-98 -75v-2l98 -75v-102z" />
    <glyph glyph-name="guilsinglright" unicode="&#x203a;" horiz-adv-x="252" 
d="M204 197l-154 -123v102l98 75v2l-98 75v102l154 -123v-110z" />
    <glyph glyph-name="quotedblbase" unicode="&#x201e;" horiz-adv-x="382" 
d="M110 -7c-39 -7 -71 15 -71 62c0 43 29 67 65 67c45 0 68 -36 68 -92c0 -73 -36 -156 -123 -170v57c37 7 61 38 61 76zM281 -7c-39 -7 -71 15 -71 62c0 43 29 67 65 67c45 0 68 -36 68 -92c0 -73 -36 -156 -123 -170v57c37 7 61 38 61 76z" />
    <glyph glyph-name="quotedblleft" unicode="&#x201c;" horiz-adv-x="381" 
d="M101 585c39 7 71 -15 71 -62c0 -43 -29 -67 -65 -67c-45 0 -68 36 -68 92c0 73 36 156 123 170v-57c-37 -7 -61 -38 -61 -76zM271 585c39 7 71 -15 71 -62c0 -43 -29 -67 -65 -67c-45 0 -68 36 -68 92c0 73 36 156 123 170v-57c-37 -7 -61 -38 -61 -76z" />
    <glyph glyph-name="quotedblright" unicode="&#x201d;" horiz-adv-x="381" 
d="M110 594c-39 -7 -71 15 -71 62c0 43 29 67 65 67c45 0 68 -36 68 -92c0 -73 -36 -156 -123 -170v57c37 7 61 38 61 76zM280 594c-39 -7 -71 15 -71 62c0 43 29 67 65 67c45 0 68 -36 68 -92c0 -73 -36 -156 -123 -170v57c37 7 61 38 61 76z" />
    <glyph glyph-name="quoteleft" unicode="&#x2018;" horiz-adv-x="211" 
d="M101 585c39 7 71 -15 71 -62c0 -43 -29 -67 -65 -67c-45 0 -68 36 -68 92c0 73 36 156 123 170v-57c-37 -7 -61 -38 -61 -76z" />
    <glyph glyph-name="quoteright" unicode="&#x2019;" horiz-adv-x="211" 
d="M110 594c-39 -7 -71 15 -71 62c0 43 29 67 65 67c45 0 68 -36 68 -92c0 -73 -36 -156 -123 -170v57c37 7 61 38 61 76z" />
    <glyph glyph-name="quotesinglbase" unicode="&#x201a;" horiz-adv-x="211" 
d="M110 -7c-39 -7 -71 15 -71 62c0 43 29 67 65 67c45 0 68 -36 68 -92c0 -73 -36 -156 -123 -170v57c37 7 61 38 61 76z" />
    <glyph glyph-name="space" unicode=" " horiz-adv-x="190" 
 />
    <glyph glyph-name="cent" unicode="&#xa2;" horiz-adv-x="527" 
d="M300 73c71 10 98 66 102 117h105c-7 -110 -88 -194 -207 -204v-78h-60v79c-133 16 -217 121 -217 268c0 148 84 253 217 268v69h60v-68c118 -10 195 -92 207 -200h-105c-4 47 -31 103 -102 113v-364zM128 255c0 -84 33 -163 112 -180v360c-78 -18 -112 -96 -112 -180z
" />
    <glyph glyph-name="currency" unicode="&#xa4;" horiz-adv-x="494" 
d="M444 346c0 -43 -11 -80 -30 -110l64 -64l-57 -56l-62 62c-33 -21 -72 -33 -112 -33c-41 0 -79 11 -112 33l-62 -62l-56 56l63 63c-19 30 -30 68 -30 111s11 81 30 111l-63 63l56 56l63 -62c32 21 71 32 111 32s79 -11 111 -33l62 62l58 -55l-64 -64
c19 -30 30 -67 30 -110zM142 346c0 -81 42 -125 105 -125s105 44 105 125s-42 124 -105 124s-105 -43 -105 -124z" />
    <glyph glyph-name="dollar" unicode="$" horiz-adv-x="594" 
d="M564 181c0 -105 -79 -191 -233 -196v-76h-60v78c-142 14 -249 94 -255 241h116c5 -82 55 -129 139 -141v218l-9 3c-104 29 -219 72 -219 198c0 114 88 190 228 194v58h60v-61c120 -16 209 -94 216 -222h-116c-8 67 -45 107 -100 121v-195c130 -39 233 -76 233 -220z
M158 517c0 -55 46 -77 113 -98v182c-69 -3 -113 -35 -113 -84zM331 84c80 4 117 41 117 95c0 58 -38 83 -117 108v-203z" />
    <glyph glyph-name="Euro" unicode="&#x20ac;" horiz-adv-x="645" 
d="M361 84c100 0 133 79 138 166h116c-13 -158 -94 -265 -253 -265c-157 0 -248 106 -273 267h-59v60h54c-1 10 -1 21 -1 31v26h-53v60h59c23 162 115 271 273 271s239 -107 253 -249h-116c-11 71 -39 150 -138 150c-95 0 -141 -72 -156 -172h186v-60h-192v-26
c0 -10 0 -21 1 -31h191v-60h-185c15 -98 61 -168 155 -168z" />
    <glyph glyph-name="sterling" unicode="&#xa3;" horiz-adv-x="562" 
d="M503 134l45 -88c-43 -32 -80 -61 -145 -61c-92 0 -125 62 -192 62c-42 0 -72 -14 -124 -47l-59 84c54 35 93 105 93 185c0 5 0 10 -1 15h-83v83h53c-17 35 -36 74 -36 131c0 85 58 202 238 202c173 0 244 -103 244 -242h-116c0 90 -37 143 -127 143
c-83 0 -124 -47 -124 -113c0 -48 20 -84 38 -121h153v-83h-125c1 -6 1 -13 1 -20c0 -71 -31 -123 -80 -158l1 -2c23 11 50 28 90 28c67 0 89 -43 146 -43c47 0 77 20 110 45z" />
    <glyph glyph-name="yen" unicode="&#xa5;" horiz-adv-x="589" 
d="M580 686l-213 -381h156v-60h-171v-57h171v-60h-171v-128h-116v128h-172v60h172v57h-172v60h157l-214 381h127l159 -311h2l159 311h126z" />
    <glyph glyph-name="plus" unicode="+" horiz-adv-x="562" 
d="M232 278h-183v98h183v189h98v-189h183v-98h-183v-189h-98v189z" />
    <glyph glyph-name="minus" unicode="&#x2212;" horiz-adv-x="562" 
d="M49 381h464v-99h-464v99z" />
    <glyph glyph-name="multiply" unicode="&#xd7;" horiz-adv-x="562" 
d="M499 475l-149 -148l149 -149l-70 -70l-149 149l-149 -149l-70 70l149 149l-149 148l70 70l149 -149l149 149z" />
    <glyph glyph-name="divide" unicode="&#xf7;" horiz-adv-x="562" 
d="M281 441c-42 0 -66 22 -66 61s24 61 66 61c41 0 66 -22 66 -61s-25 -61 -66 -61zM49 278v98h464v-98h-464zM281 89c-42 0 -66 22 -66 61s24 61 66 61c41 0 66 -22 66 -61s-25 -61 -66 -61z" />
    <glyph glyph-name="equal" unicode="=" horiz-adv-x="561" 
d="M52 449h459v-98h-459v98zM52 273h459v-98h-459v98z" />
    <glyph glyph-name="notequal" unicode="&#x2260;" horiz-adv-x="561" 
d="M511 351h-169l-36 -78h205v-98h-251l-47 -99h-80l47 99h-128v98h174l37 78h-211v98h257l43 91h79l-43 -91h123v-98z" />
    <glyph glyph-name="greater" unicode="&#x3e;" horiz-adv-x="508" 
d="M52 86v98l321 125v2l-321 126v99l408 -171v-109z" />
    <glyph glyph-name="less" unicode="&#x3c;" horiz-adv-x="530" 
d="M456 86l-408 170v109l408 171v-99l-321 -126v-2l321 -125v-98z" />
    <glyph glyph-name="greaterequal" unicode="&#x2265;" horiz-adv-x="508" 
d="M52 114v99l321 111v2l-321 111v99l408 -157v-109zM52 84h408v-86h-408v86z" />
    <glyph glyph-name="lessequal" unicode="&#x2264;" horiz-adv-x="530" 
d="M456 114l-408 156v109l408 157v-99l-321 -111v-2l321 -111v-99zM456 84v-86h-408v86h408z" />
    <glyph glyph-name="plusminus" unicode="&#xb1;" horiz-adv-x="562" 
d="M49 306v98h183v161h98v-161h183v-98h-183v-161h-98v161h-183zM49 86h464v-86h-464v86z" />
    <glyph glyph-name="approxequal" unicode="&#x2248;" horiz-adv-x="556" 
d="M396 334c-72 0 -165 38 -230 38c-40 0 -51 -16 -51 -45h-80c0 70 28 134 116 134c72 0 164 -38 229 -38c40 0 52 16 52 45h79c0 -70 -28 -134 -115 -134zM396 158c-72 0 -165 38 -230 38c-40 0 -51 -16 -51 -45h-80c0 71 28 135 116 135c72 0 164 -39 229 -39
c40 0 52 17 52 45h79c0 -70 -28 -134 -115 -134z" />
    <glyph glyph-name="asciitilde" unicode="~" horiz-adv-x="409" 
d="M32 260c0 84 35 136 99 136c62 0 93 -43 130 -43c30 0 38 25 38 43h80c0 -84 -35 -136 -99 -136c-61 0 -93 44 -129 44c-31 0 -39 -25 -39 -44h-80z" />
    <glyph glyph-name="logicalnot" unicode="&#xac;" horiz-adv-x="548" 
d="M362 310h-306v98h418v-267h-112v169z" />
    <glyph glyph-name="emptyset" unicode="&#x2205;" horiz-adv-x="797" 
d="M679 586c55 -62 88 -145 88 -241c0 -214 -162 -360 -368 -360c-92 0 -176 29 -240 81l-65 -65l-40 40l64 64c-55 61 -88 144 -88 240c0 214 163 361 369 361c92 0 175 -29 239 -81l65 65l40 -40zM86 345c0 -79 27 -148 73 -199l438 438c-54 42 -123 65 -198 65
c-173 0 -313 -123 -313 -304zM399 42c172 0 312 123 312 303c0 80 -27 149 -73 200l-438 -438c54 -41 123 -65 199 -65z" />
    <glyph glyph-name="infinity" unicode="&#x221e;" horiz-adv-x="718" 
d="M31 304c0 122 74 178 151 178c85 0 138 -55 177 -100h2c38 45 90 100 175 100c77 0 151 -56 151 -178c0 -120 -74 -177 -151 -177c-85 0 -137 66 -175 111h-2c-39 -45 -92 -111 -177 -111c-77 0 -151 57 -151 177zM196 217c53 0 89 52 118 88c-29 36 -65 88 -118 88
c-47 0 -76 -32 -76 -88s29 -88 76 -88zM522 217c47 0 76 32 76 88s-29 88 -76 88c-52 0 -89 -52 -118 -88c29 -36 66 -88 118 -88z" />
    <glyph glyph-name="integral" unicode="&#x222b;" horiz-adv-x="347" 
d="M224 -5c0 -102 -44 -171 -148 -171c-36 0 -65 5 -84 10v93c88 -13 117 27 117 101v541c0 102 44 171 147 171c36 0 66 -5 85 -10v-93c-88 13 -117 -27 -117 -101v-541z" />
    <glyph glyph-name="product" unicode="&#x220f;" horiz-adv-x="708" 
d="M65 715h578v-815h-116v717h-346v-717h-116v815z" />
    <glyph glyph-name="summation" unicode="&#x2211;" horiz-adv-x="614" 
d="M37 1l269 314v2l-269 298v100h532v-98h-396v-2l240 -268v-56l-247 -291v-2h413v-98h-542v101z" />
    <glyph glyph-name="radical" unicode="&#x221a;" horiz-adv-x="602" 
d="M14 330h152l96 -289h2l214 674h115l-277 -815h-105l-122 332h-75v98z" />
    <glyph glyph-name="partialdiff" unicode="&#x2202;" horiz-adv-x="559" 
d="M406 408v2c-25 139 -125 200 -243 207v98c255 -7 358 -190 358 -399c0 -167 -74 -331 -266 -331c-132 0 -219 89 -219 232c0 132 96 254 227 254c65 0 112 -23 143 -63zM264 80c89 0 142 77 142 165c0 69 -44 131 -116 131c-87 0 -141 -78 -141 -165
c0 -77 49 -131 115 -131z" />
    <glyph glyph-name="percent" unicode="%" horiz-adv-x="831" 
d="M191 308c-114 0 -168 91 -168 199c0 107 54 199 168 199c116 0 168 -92 168 -199c0 -108 -52 -199 -168 -199zM637 691l-363 -691h-80l363 691h80zM191 384c55 0 79 47 79 123s-24 122 -79 122s-79 -46 -79 -122s24 -123 79 -123zM640 -15c-114 0 -168 92 -168 199
c0 108 54 199 168 199c116 0 168 -91 168 -199c0 -107 -52 -199 -168 -199zM640 62c55 0 79 46 79 122s-24 123 -79 123c-54 0 -79 -47 -79 -123s25 -122 79 -122z" />
    <glyph glyph-name="perthousand" unicode="&#x2030;" horiz-adv-x="1206" 
d="M191 308c-114 0 -168 91 -168 199c0 107 54 199 168 199c116 0 168 -92 168 -199c0 -108 -52 -199 -168 -199zM637 691l-363 -691h-80l363 691h80zM191 384c55 0 79 47 79 123s-24 122 -79 122s-79 -46 -79 -122s24 -123 79 -123zM640 -15c-114 0 -168 92 -168 199
c0 108 54 199 168 199c116 0 168 -91 168 -199c0 -107 -52 -199 -168 -199zM1015 -15c-114 0 -168 92 -168 199c0 108 54 199 168 199c116 0 168 -91 168 -199c0 -107 -52 -199 -168 -199zM640 62c55 0 79 46 79 122s-24 123 -79 123c-54 0 -79 -47 -79 -123
s25 -122 79 -122zM1015 62c55 0 79 46 79 122s-24 123 -79 123c-54 0 -79 -47 -79 -123s25 -122 79 -122z" />
    <glyph glyph-name="arrowup" unicode="&#x2191;" horiz-adv-x="626" 
d="M596 429l-59 -61l-181 170v-538h-86v538l-181 -170l-59 61l283 262z" />
    <glyph glyph-name="uni2197" unicode="&#x2197;" horiz-adv-x="594" 
d="M564 215l-85 -2l-8 249l-380 -380l-61 60l380 380l-248 8l1 85l386 -15z" />
    <glyph glyph-name="arrowright" unicode="&#x2192;" horiz-adv-x="751" 
d="M459 37l-61 58l170 181h-538v86h538l-170 182l61 58l262 -283z" />
    <glyph glyph-name="uni2198" unicode="&#x2198;" horiz-adv-x="586" 
d="M564 429l-15 -385l-386 -15l-1 85l248 8l-380 380l61 60l380 -380l8 249z" />
    <glyph glyph-name="arrowdown" unicode="&#x2193;" horiz-adv-x="626" 
d="M596 222l-283 -262l-283 262l59 61l181 -170v538h86v-538l181 170z" />
    <glyph glyph-name="uni2199" unicode="&#x2199;" horiz-adv-x="586" 
d="M20 429l85 2l8 -249l380 380l61 -60l-380 -380l248 -8l-1 -85l-386 15z" />
    <glyph glyph-name="arrowleft" unicode="&#x2190;" horiz-adv-x="751" 
d="M292 37l-262 282l262 283l61 -58l-170 -182h538v-86h-538l170 -181z" />
    <glyph glyph-name="uni2196" unicode="&#x2196;" horiz-adv-x="586" 
d="M20 215l15 385l386 15l1 -85l-248 -8l380 -380l-61 -60l-380 380l-8 -249z" />
    <glyph glyph-name="arrowboth" unicode="&#x2194;" horiz-adv-x="1140" 
d="M848 602l262 -283l-262 -282l-61 58l170 181h-774l170 -181l-61 -59l-262 283l262 283l61 -58l-170 -182h774l-170 182z" />
    <glyph glyph-name="arrowupdn" unicode="&#x2195;" horiz-adv-x="626" 
d="M356 -24l181 170l59 -61l-283 -262l-283 262l59 61l181 -170v657l-181 -170l-59 61l283 262l283 -262l-59 -61l-181 170v-657z" />
    <glyph glyph-name="lozenge" unicode="&#x25ca;" horiz-adv-x="562" 
d="M23 358l201 357h113l202 -358l-201 -357h-113zM283 98l141 257l-143 262h-2l-141 -258l143 -261h2z" />
    <glyph glyph-name="at" unicode="@" horiz-adv-x="889" 
d="M673 79c-64 0 -112 30 -139 81h-2c-26 -47 -66 -77 -135 -77c-91 0 -164 76 -164 207c0 138 83 227 184 227c66 0 113 -37 131 -81h2l10 74h91l-32 -251c-9 -68 13 -104 61 -104c59 0 98 54 98 165c0 180 -122 317 -323 317c-203 0 -339 -162 -339 -339
c0 -197 137 -328 329 -328c62 0 120 6 179 30l28 -64c-66 -34 -135 -43 -207 -43c-243 0 -411 158 -411 405c0 227 175 416 421 416c253 0 402 -177 402 -391c0 -187 -96 -244 -184 -244zM418 166c77 0 114 65 114 149c0 80 -40 119 -95 119c-73 0 -114 -62 -114 -149
c0 -68 28 -119 95 -119z" />
    <glyph glyph-name="ampersand" unicode="&#x26;" horiz-adv-x="622" 
d="M627 0h-129l-48 58c-49 -44 -113 -73 -192 -73c-146 0 -224 82 -224 191c0 106 75 163 150 207c-50 61 -84 109 -84 176c0 84 60 170 183 171c115 1 183 -87 183 -171c0 -81 -54 -131 -148 -185l131 -158c19 40 32 84 39 128h99c-9 -68 -32 -144 -72 -208zM283 631
c-52 0 -81 -36 -81 -79c0 -40 29 -76 67 -120c59 36 95 68 95 120c0 43 -28 79 -81 79zM265 84c50 0 91 19 124 49l-157 192c-60 -40 -90 -85 -90 -139s42 -102 123 -102z" />
    <glyph glyph-name="paragraph" unicode="&#xb6;" horiz-adv-x="566" 
d="M270 335h-45c-129 0 -197 67 -197 187s68 193 197 193h278v-715h-79v632h-75v-632h-79v335z" />
    <glyph glyph-name="section" unicode="&#xa7;" horiz-adv-x="596" 
d="M569 235c0 -72 -41 -120 -112 -139c26 -31 44 -68 44 -116c0 -87 -65 -156 -200 -156c-146 0 -204 81 -209 172h106c4 -42 14 -89 104 -89c69 0 94 26 94 64c0 63 -91 107 -153 142c-117 65 -215 101 -215 206c0 70 40 118 113 138c-27 31 -45 68 -45 117
c0 87 65 156 200 156c146 0 204 -81 209 -172h-106c-4 42 -14 89 -104 89c-69 0 -94 -26 -94 -64c0 -63 90 -107 153 -142c117 -64 215 -108 215 -206zM389 152c53 10 74 31 74 64c0 51 -70 85 -169 137c-27 15 -57 30 -86 49c-53 -10 -74 -31 -74 -64
c0 -58 70 -85 169 -137c27 -15 57 -30 86 -49z" />
    <glyph glyph-name="copyright" unicode="&#xa9;" horiz-adv-x="817" 
d="M409 -16c-226 0 -369 159 -369 373s143 374 369 374s368 -160 368 -374s-142 -373 -368 -373zM409 27c195 0 315 147 315 330c0 184 -120 331 -315 331c-196 0 -316 -147 -316 -331c0 -183 120 -330 316 -330zM514 418c-4 27 -24 85 -104 85c-89 0 -116 -66 -116 -146
c0 -79 27 -145 116 -145c80 0 100 55 104 86h89c-6 -92 -74 -165 -188 -165c-134 0 -211 92 -211 224c0 131 73 225 203 225c116 0 186 -73 196 -164h-89z" />
    <glyph glyph-name="registered" unicode="&#xae;" horiz-adv-x="529" 
d="M265 247c-134 0 -239 103 -239 242s105 242 239 242c133 0 238 -103 238 -242s-105 -242 -238 -242zM265 290c110 0 192 82 192 199c0 116 -82 199 -192 199c-111 0 -193 -83 -193 -199c0 -117 82 -199 193 -199zM171 362v258h110c53 0 88 -27 88 -74
c0 -36 -19 -57 -48 -64v-1c59 -11 37 -112 51 -116v-3h-53c-11 11 14 100 -55 100h-43v-100h-50zM221 576v-71h44c27 0 53 2 53 36s-26 35 -53 35h-44z" />
    <glyph glyph-name="trademark" unicode="&#x2122;" horiz-adv-x="658" 
d="M118 654h-86v61h239v-61h-86v-215h-67v215zM308 715h93l59 -188h1l61 188h94v-276h-65v198h-2l-60 -198h-57l-59 198h-2v-198h-63v276z" />
    <glyph glyph-name="degree" unicode="&#xb0;" horiz-adv-x="370" 
d="M185 427c-101 0 -152 80 -152 152c0 71 51 151 152 151c100 0 152 -80 152 -151c0 -72 -52 -152 -152 -152zM185 494c48 0 83 33 83 85c0 51 -35 84 -83 84s-82 -33 -82 -84c0 -52 34 -85 82 -85z" />
    <glyph glyph-name="bar" unicode="|" horiz-adv-x="224" 
d="M71 747h83v-878h-83v878z" />
    <glyph glyph-name="brokenbar" unicode="&#xa6;" horiz-adv-x="224" 
d="M71 747h83v-363h-83v363zM71 245h83v-376h-83v376z" />
    <glyph glyph-name="dagger" unicode="&#x2020;" horiz-adv-x="535" 
d="M210 414h-176v98h176v203h116v-203h175v-98h-175v-591h-116v591z" />
    <glyph glyph-name="daggerdbl" unicode="&#x2021;" horiz-adv-x="535" 
d="M210 94h-176v98h176v222h-176v98h176v203h116v-203h175v-98h-175v-222h175v-98h-175v-271h-116v271z" />
    <glyph glyph-name="asciicircum" unicode="^" horiz-adv-x="457" 
d="M183 715h92l173 -275h-109l-110 181h-1l-109 -181h-110z" />
    <glyph glyph-name="uni0308" unicode="&#x308;" 
d="M-318 666c0 32 21 59 59 59c37 0 58 -27 58 -59c0 -30 -21 -57 -58 -57c-38 0 -59 27 -59 57zM-147 666c0 32 21 59 59 59c37 0 58 -27 58 -59c0 -30 -21 -57 -58 -57c-38 0 -59 27 -59 57z" />
    <glyph glyph-name="uni0307" unicode="&#x307;" 
d="M-147 666c0 32 21 59 59 59c37 0 58 -27 58 -59c0 -30 -21 -57 -58 -57c-38 0 -59 27 -59 57z" />
    <glyph glyph-name="gravecomb" unicode="&#x300;" 
d="M-73 723l43 -131h-82l-83 131h122z" />
    <glyph glyph-name="acutecomb" unicode="&#x301;" 
d="M-152 723h122l-83 -131h-82z" />
    <glyph glyph-name="uni030B" unicode="&#x30b;" 
d="M-319 723h122l-83 -131h-82zM-152 723h122l-83 -131h-82z" />
    <glyph glyph-name="uni0302" unicode="&#x302;" 
d="M-335 593l97 131h111l97 -131h-99l-53 79h-2l-52 -79h-99z" />
    <glyph glyph-name="uni030C" unicode="&#x30c;" 
d="M-335 723h99l52 -79h2l53 79h99l-97 -131h-111z" />
    <glyph glyph-name="uni0306" unicode="&#x306;" 
d="M-167 588c-78 0 -135 46 -138 135h70c3 -42 25 -63 68 -63s64 21 67 63h70c-4 -86 -58 -135 -137 -135z" />
    <glyph glyph-name="uni030A" unicode="&#x30a;" 
d="M-122 579c-50 0 -92 35 -92 91c0 54 42 92 92 92s92 -38 92 -92c0 -56 -42 -91 -92 -91zM-122 623c24 0 45 18 45 47s-21 47 -45 47s-45 -18 -45 -47s21 -47 45 -47z" />
    <glyph glyph-name="tildecomb" unicode="&#x303;" 
d="M-326 614c0 76 35 107 78 107c48 0 94 -37 124 -37c23 0 26 20 26 35h68c0 -78 -35 -107 -79 -107c-48 0 -93 37 -124 37c-23 0 -26 -21 -26 -35h-67z" />
    <glyph glyph-name="uni0304" unicode="&#x304;" 
d="M-297 700h267v-80h-267v80z" />
    <glyph glyph-name="uni0312" unicode="&#x312;" 
d="M-80 679c35 10 65 -9 65 -51c0 -34 -24 -58 -55 -58c-43 0 -65 37 -65 87s28 116 110 128v-42c-33 -6 -55 -30 -55 -64z" />
    <glyph glyph-name="uni0326" unicode="&#x326;" 
d="M-86 -164c-35 -10 -64 9 -64 50c0 34 26 59 57 59c42 0 63 -37 63 -86c0 -51 -28 -110 -111 -122v42c34 6 55 23 55 57z" />
    <glyph glyph-name="uni0327" unicode="&#x327;" 
d="M-89 -8l-40 -49v-2c44 6 101 -10 101 -62c0 -48 -54 -76 -112 -76c-43 0 -84 12 -109 29l24 29c22 -9 44 -15 73 -15c28 0 52 13 52 34c0 19 -16 27 -47 27c-11 0 -28 -3 -38 -7l-14 21l57 71h53z" />
    <glyph glyph-name="uni0328" unicode="&#x328;" 
d="M-100 -177c-65 0 -98 30 -98 77s39 85 74 100h73c-38 -30 -60 -56 -60 -78c0 -18 15 -28 35 -28c18 0 32 4 46 9v-70c-20 -6 -46 -10 -70 -10z" />
    <glyph glyph-name="uni0335" unicode="&#x335;" 
d="M-30 408v-76h-421v76h421z" />
    <glyph glyph-name="uni0336" unicode="&#x336;" 
d="M-30 414v-108h-513v108h513z" />
    <glyph glyph-name="uni0337" unicode="&#x337;" 
d="M-562 27l36 -37l494 495l-37 37z" />
    <glyph glyph-name="uni0338" unicode="&#x338;" 
d="M-562 27l36 -37l494 495l-37 37z" />
    <glyph glyph-name="acute" unicode="&#xb4;" horiz-adv-x="484" 
d="M241 723h122l-83 -131h-82z" />
    <glyph glyph-name="breve" unicode="&#x2d8;" horiz-adv-x="499" 
d="M256 588c-78 0 -135 46 -138 135h70c3 -42 25 -63 68 -63s64 21 67 63h70c-4 -86 -58 -135 -137 -135z" />
    <glyph glyph-name="caron" unicode="&#x2c7;" horiz-adv-x="500" 
d="M98 723h99l52 -79h2l53 79h99l-97 -131h-111z" />
    <glyph glyph-name="cedilla" unicode="&#xb8;" horiz-adv-x="502" 
d="M279 -8l-40 -49v-2c44 6 101 -10 101 -62c0 -48 -54 -76 -112 -76c-43 0 -84 12 -109 29l24 29c22 -9 44 -15 73 -15c28 0 52 13 52 34c0 19 -16 27 -47 27c-11 0 -28 -3 -38 -7l-14 21l57 71h53z" />
    <glyph glyph-name="circumflex" unicode="&#x2c6;" horiz-adv-x="432" 
d="M98 593l97 131h111l97 -131h-99l-53 79h-2l-52 -79h-99z" />
    <glyph glyph-name="dieresis" unicode="&#xa8;" horiz-adv-x="502" 
d="M107 666c0 32 21 59 59 59c37 0 58 -27 58 -59c0 -30 -21 -57 -58 -57c-38 0 -59 27 -59 57zM278 666c0 32 21 59 59 59c37 0 58 -27 58 -59c0 -30 -21 -57 -58 -57c-38 0 -59 27 -59 57z" />
    <glyph glyph-name="dotaccent" unicode="&#x2d9;" horiz-adv-x="510" 
d="M196 666c0 32 21 59 59 59c37 0 58 -27 58 -59c0 -30 -21 -57 -58 -57c-38 0 -59 27 -59 57z" />
    <glyph glyph-name="grave" unicode="`" horiz-adv-x="652" 
d="M243 723l43 -131h-82l-83 131h122z" />
    <glyph glyph-name="hungarumlaut" unicode="&#x2dd;" horiz-adv-x="538" 
d="M167 723h122l-83 -131h-82zM334 723h122l-83 -131h-82z" />
    <glyph glyph-name="macron" unicode="&#xaf;" horiz-adv-x="500" 
d="M117 700h267v-80h-267v80z" />
    <glyph glyph-name="ogonek" unicode="&#x2db;" horiz-adv-x="503" 
d="M224 -177c-65 0 -98 30 -98 77s39 85 74 100h73c-38 -30 -60 -56 -60 -78c0 -18 15 -28 35 -28c18 0 32 4 46 9v-70c-20 -6 -46 -10 -70 -10z" />
    <glyph glyph-name="ring" unicode="&#x2da;" horiz-adv-x="507" 
d="M253 579c-50 0 -92 35 -92 91c0 54 42 92 92 92s92 -38 92 -92c0 -56 -42 -91 -92 -91zM253 623c24 0 45 18 45 47s-21 47 -45 47s-45 -18 -45 -47s21 -47 45 -47z" />
    <glyph glyph-name="tilde" unicode="&#x2dc;" horiz-adv-x="500" 
d="M102 614c0 76 35 107 78 107c48 0 94 -37 124 -37c23 0 26 20 26 35h68c0 -78 -35 -107 -79 -107c-48 0 -93 37 -124 37c-23 0 -26 -21 -26 -35h-67z" />
    <glyph glyph-name="logo" horiz-adv-x="909" 
d="M764 354c60 0 115 -41 115 -120c0 -94 -71 -137 -124 -137c-31 0 -49 10 -63 19c9 -13 19 -32 19 -63c0 -53 -43 -124 -137 -124c-74 0 -115 48 -119 104c-5 -56 -46 -104 -120 -104c-94 0 -137 71 -137 124c0 31 10 50 19 63c-14 -9 -32 -19 -63 -19
c-53 0 -124 43 -124 137c0 79 55 120 115 120c-60 0 -115 41 -115 120c0 94 71 137 124 137c31 0 49 -10 63 -19c-9 13 -19 32 -19 63c0 53 43 124 137 124c74 0 115 -48 120 -104c4 56 45 104 119 104c94 0 137 -71 137 -124c0 -31 -10 -50 -19 -63c14 9 32 19 63 19
c53 0 124 -43 124 -137c0 -79 -55 -120 -115 -120zM106 472c0 -41 23 -77 101 -77h137c52 0 70 18 70 70v137c0 78 -36 101 -77 101c-43 0 -73 -25 -73 -68c0 -29 12 -50 27 -67c4 1 7 1 11 1c36 0 64 -28 64 -62c0 -36 -28 -64 -64 -64c-34 0 -62 26 -62 64c0 4 0 7 1 11
c-17 15 -38 27 -67 27c-36 0 -68 -30 -68 -73zM495 602v-137c0 -52 18 -70 70 -70h137c78 0 101 36 101 77c0 43 -32 73 -68 73c-29 0 -50 -12 -67 -27c1 -4 1 -7 1 -11c0 -38 -28 -64 -62 -64c-36 0 -64 28 -64 64c0 34 28 62 64 62c4 0 7 0 11 -1c15 17 27 38 27 67
c0 43 -30 68 -73 68c-41 0 -77 -23 -77 -101zM414 106v137c0 52 -18 70 -70 70h-137c-78 0 -101 -36 -101 -77c0 -43 32 -73 68 -73c29 0 50 12 67 27c-1 4 -1 7 -1 11c0 38 28 64 62 64c36 0 64 -28 64 -64c0 -34 -28 -62 -64 -62c-4 0 -7 0 -11 1c-15 -17 -27 -38 -27 -67
c0 -43 30 -68 73 -68c41 0 77 23 77 101zM735 163c36 0 68 30 68 73c0 41 -23 77 -101 77h-137c-52 0 -70 -18 -70 -70v-137c0 -78 36 -101 77 -101c43 0 73 25 73 68c0 29 -12 50 -27 67c-4 -1 -7 -1 -11 -1c-36 0 -64 28 -64 62c0 36 28 64 64 64c34 0 62 -26 62 -64
c0 -4 0 -7 -1 -11c17 -15 38 -27 67 -27z" />
    <glyph glyph-name="logo_petal" horiz-adv-x="473" 
d="M320 563c53 0 124 -43 124 -137c0 -79 -55 -120 -115 -120h-310v310c0 60 41 115 120 115c94 0 137 -71 137 -124c0 -31 -10 -50 -19 -63c14 9 32 19 63 19zM267 347c78 0 101 36 101 77c0 43 -32 73 -68 73c-29 0 -50 -12 -67 -27c1 -4 1 -7 1 -11
c0 -38 -28 -64 -62 -64c-36 0 -64 28 -64 64c0 34 28 62 64 62c4 0 7 0 11 -1c15 17 27 38 27 67c0 43 -30 68 -73 68c-41 0 -77 -23 -77 -101v-137c0 -52 18 -70 70 -70h137z" />
    </font>
</defs>
</svg>
